<svg xmlns="http://www.w3.org/2000/svg" viewBox="0 0 300 300" width="162"><path d="M103.3 134.8L196.7 134.8 196.7 145.2 103.3 145.2 103.3 134.8ZM103.3 157.8L196.7 157.8 196.7 168.2 103.3 168.2 103.3 157.8ZM103.3 111.7L196.7 111.7 196.7 122.1 103.3 122.1 103.3 111.7Z" fill="#fff"/><path d="M150 0C67.2 0 0 67.2 0 150c0 82.8 67.2 150 150 150s150-67.2 150-150C300 67.2 232.8 0 150 0zM185.7 64.6l31.5 28.7h-31.5V64.6zM170.8 214.6v16.4 4.4h-69.8c-10.1 0-18.2-8.2-18.2-18.2V82.8c0-10.1 8.2-18.2 18.2-18.2h76.9v36.5h39.3v79.8h-12.6H194.2v0h-90.9v10.4h90.9v12.6h-90.9v10.4h67.5V214.6zM244.4 231h-23.4v23.4h-16.4v-23.4h-23.4v-16.4h23.4v-23.4h16.4v23.4h23.4C244.4 214.6 244.4 231 244.4 231z" fill="#fff"/></svg>