<?xml version="1.0" encoding="utf-8"?>
<svg version="1.1" id="Layer_1" x="0px" y="0px" viewBox="0 0 299.994 299.994" style="enable-background:new 0 0 299.994 299.994;" width="156" height="156" class="" xmlns="http://www.w3.org/2000/svg">
  <path d="M 148.75 87.806 C 131.326 88.374 111.172 98.411 111.174 124.949 C 111.174 138.394 119.139 146.369 127.576 154.814 C 130.854 158.092 134.184 161.425 136.882 165.134 L 160.621 165.134 C 163.316 161.428 166.646 158.092 169.927 154.814 C 178.361 146.369 186.326 138.394 186.326 124.949 C 186.326 98.411 166.171 88.374 148.75 87.806 Z" data-original="#2DAF4A" class="active-path"/>
  <path d="M 149.997 0 C 67.156 0 0 67.156 0 149.997 C 0 232.836 67.156 299.994 149.997 299.994 C 232.838 299.994 299.994 232.836 299.994 149.997 C 299.995 67.156 232.839 0 149.997 0 Z M 148.75 218.471 C 135.857 218.471 125.408 207.386 125.408 193.705 L 172.093 193.705 C 172.095 207.388 161.643 218.471 148.75 218.471 Z M 170.412 180.695 L 127.086 180.695 C 125.919 167.942 95.61 156.824 95.61 124.948 C 95.61 90.946 121.035 72.921 148.747 72.239 C 148.747 72.239 148.747 72.239 148.752 72.239 C 176.462 72.921 201.887 90.947 201.887 124.948 C 201.887 156.824 171.576 167.942 170.412 180.695 Z" data-original="#2DAF4A" class="active-path"/>
</svg>