<?xml version="1.0" encoding="utf-8"?>
<svg version="1.1" id="Capa_1" x="0px" y="0px" width="512" height="512" viewBox="-26.509000778198242 -18.933000564575195 60 60" style="enable-background:new 0 0 47.001 47.001;" class="" xmlns="http://www.w3.org/2000/svg">
  <ellipse transform="matrix(0.707107, -0.707107, 0.707107, 0.707107, -66.586845, 12.791638)" cx="50.772" cy="48.333" rx="30" ry="30" style="fill: rgb(232, 152, 60);"/>
  <path d="M 18.77 6.929 L 25.443 15.335 L 21.102 15.335 C 19.241 25.434 10.373 33.111 -0.256 33.111 C -12.235 33.111 -21.982 23.364 -21.982 11.385 C -21.982 -0.594 -12.236 -10.34 -0.256 -10.34 C 7.475 -10.34 14.681 -6.179 18.56 0.517 L 15.141 2.496 C 11.969 -2.985 6.069 -6.391 -0.256 -6.391 C -10.057 -6.391 -18.032 1.583 -18.032 11.383 C -18.032 21.185 -10.057 29.159 -0.256 29.159 C 8.186 29.159 15.259 23.238 17.061 15.334 L 12.46 15.306 L 18.77 6.929 Z" data-original="#000000" class="active-path" style="fill: rgb(255, 255, 255); stroke: rgb(255, 255, 255);" transform="matrix(-1, 0, 0, -1, 3.460997, 22.770999)"/>
  <path d="M -4.053 20.423 C -5.144 20.423 -6.028 19.539 -6.028 18.448 L -6.028 6.464 C -6.921 5.838 -7.509 4.806 -7.509 3.634 C -7.509 1.728 -5.958 0.177 -4.052 0.177 C -3.53 0.177 -3.038 0.302 -2.594 0.511 L 4.276 -3.454 C 4.588 -3.635 4.926 -3.72 5.262 -3.72 C 5.944 -3.72 6.608 -3.366 6.974 -2.732 C 7.519 -1.789 7.196 -0.58 6.25 -0.035 L -0.627 3.936 C -0.719 4.98 -1.262 5.892 -2.076 6.462 L -2.076 18.448 C -2.078 19.538 -2.963 20.423 -4.053 20.423 Z M -4.053 2.154 C -4.87 2.154 -5.534 2.819 -5.534 3.634 C -5.534 4.45 -4.869 5.115 -4.053 5.115 C -3.237 5.115 -2.572 4.45 -2.572 3.634 C -2.572 2.819 -3.237 2.154 -4.053 2.154 Z" data-original="#000000" class="active-path" style="fill: rgb(255, 255, 255);" transform="matrix(-1, 0, 0, -1, -0.270216, 16.703)"/>
</svg>