<svg xmlns="http://www.w3.org/2000/svg" xmlns:xlink="http://www.w3.org/1999/xlink" version="1.1" id="Layer_1" x="0px" y="0px" viewBox="0 0 299.998 299.998" style="enable-background:new 0 0 299.998 299.998;" xml:space="preserve" width="162px">
  <rect x="103.313" y="111.747" width="93.369" height="10.374" style="fill: #fff;"></rect>
  <rect x="103.313" y="157.773" width="93.369" height="10.374" style="fill: #fff;"></rect>
  <rect x="103.313" y="134.76" width="93.369" height="10.374" style="fill: #fff;"></rect>
  <path d="M149.995,0C67.156,0,0,67.159,0,149.997c0,82.837,67.156,150,149.995,150s150.003-67.163,150.003-150     C299.997,67.159,232.834,0,149.995,0z M185.688,64.565l31.517,28.669h-31.517V64.565z M170.775,214.576v16.41v4.445h-69.76     c-10.068,0-18.225-8.159-18.225-18.225V82.79c0-10.066,8.159-18.225,18.225-18.225h76.889v36.45h39.298v79.763h-12.628H194.2     v0.01h-90.887v10.374h90.89v12.639h-90.89v10.374h67.462V214.576z M244.409,230.987h-23.425v23.425h-16.407v-23.425h-23.428     v-16.41h23.428v-23.425h16.407v23.425h23.425C244.409,214.578,244.409,230.987,244.409,230.987z" style="fill: #fff;"></path>
</svg>