<?xml version="1.0" encoding="utf-8"?>
<svg version="1.1" id="Layer_1" x="0px" y="0px" viewBox="94.0719985961914 102.30999755859375 100 100" style="enable-background:new 0 0 299.995 299.995;" xmlns="http://www.w3.org/2000/svg">
  <path d="M 176.148 165.97 C 176.148 165.97 172.239 161.278 167.911 164.515 C 164.685 166.927 158.888 172.291 157.495 173.593 C 157.495 173.593 147.805 168.427 142.071 163.709 C 133.577 156.724 127.897 148.101 124.92 143.196 L 122.697 139.005 C 123.472 138.17 129.407 131.816 131.974 128.366 C 135.206 124.04 130.522 120.131 130.522 120.131 C 130.522 120.131 117.339 106.948 114.338 104.333 C 111.335 101.711 107.877 103.166 107.877 103.166 C 101.562 107.248 95.018 110.794 94.629 127.852 C 94.616 143.821 106.738 160.29 119.844 173.04 C 132.975 187.442 151.006 201.873 168.432 201.857 C 185.487 201.473 189.03 194.927 193.11 188.612 C 193.11 188.612 194.57 185.157 191.951 182.154 C 189.331 179.146 176.148 165.97 176.148 165.97 Z"/>
</svg>