<?xml version="1.0" encoding="utf-8"?>
<svg viewBox="51.400001525878906 69.8499984741211 300 300" background="#e74c3c" xmlns="http://www.w3.org/2000/svg">
  <path d="M 140.85 281.05 L 103.65 291.05 L 113.85 253.05 C 106.85 241.05 102.75 227.05 102.75 212.05 C 102.75 166.95 139.25 130.45 184.35 130.45 C 229.45 130.45 265.95 166.95 265.95 212.05 C 265.95 257.15 229.45 293.65 184.35 293.65 C 168.35 293.65 153.45 289.05 140.85 281.05 Z M 299.15 306.85 L 265.35 297.75 C 253.85 305.05 240.25 309.25 225.75 309.25 C 215.35 309.25 205.45 307.15 196.55 303.25 C 241.65 297.35 276.55 258.75 276.55 212.05 C 276.55 198.55 273.55 185.65 268.35 174.15 C 287.55 187.55 300.05 209.85 300.05 235.05 C 300.05 248.65 296.35 261.35 290.05 272.35 L 299.15 306.85 Z" style="fill: rgb(231, 76, 60);"/>
</svg>