<?xml version="1.0" encoding="utf-8"?>
<svg viewBox="360 360 800 800" width="681.053" height="677.756" xmlns="http://www.w3.org/2000/svg">
  <rect x="360" y="360" width="800" height="800" style="fill: rgb(255, 255, 255); stroke-width: 2px;">
    <title>background</title>
  </rect>
  <path id="path22" style="fill-opacity: 1; fill-rule: nonzero; stroke: none; fill: rgb(93, 220, 66);" d="M 859.698 1093.333 C 838.938 1093.333 819.425 1085.24 804.753 1070.544 C 791.208 1056.981 783.172 1038.972 782.12 1019.832 C 782.097 1019.424 782.097 1019.021 782.12 1018.619 C 782.12 965.729 769.053 950.104 733.573 951.992 C 729.256 952.223 724.868 952.644 720.557 953.928 C 720.161 954.045 719.76 954.144 719.353 954.216 C 707.36 958.056 694.845 960 682.137 960 C 606.416 960 559.881 913.769 559.881 837.779 C 559.881 825.371 561.879 812.841 565.825 800.529 C 565.888 800.187 565.959 799.851 566.051 799.513 C 569.788 786.028 567.323 772.104 559.305 761.311 C 548.345 746.572 528.381 738.399 501.519 737.652 C 501.1 737.679 500.676 737.681 500.256 737.661 C 471.301 736.044 444.923 718.387 432.708 689.863 C 422.573 666.193 425.359 638.263 439.797 616.946 C 454.827 594.759 478.744 582.224 504.568 582.224 C 525.324 582.224 544.836 590.316 559.515 605.006 C 573.059 618.571 581.101 636.579 582.152 655.72 C 582.169 656.124 582.169 656.531 582.152 656.932 C 582.952 682.284 590.416 701.015 603.443 711.744 C 616.003 722.088 633.551 717.169 640.449 702.431 C 665 649.985 662.917 599.203 625.052 557.134 C 624.768 556.875 624.489 556.592 624.228 556.296 C 604.097 533.786 598.241 500.943 611.72 471.17 C 621.199 450.23 640.381 434.498 662.704 429.04 C 717.788 415.578 766.755 461.379 759.016 515.802 C 756.825 531.211 750.787 546.551 739.303 557.052 C 739.264 557.087 739.225 557.123 739.185 557.158 C 702.66 596.283 704.488 642.901 717.029 681.088 C 723.436 700.596 745.101 710.451 764.221 702.984 C 829.604 677.447 869.242 609.15 870.901 567.986 C 870.884 567.594 870.884 567.199 870.901 566.798 C 871.953 547.676 879.99 529.674 893.529 516.112 C 908.206 501.42 927.718 493.335 948.473 493.335 C 974.258 493.335 998.113 505.812 1013.17 527.932 C 1027.681 549.248 1030.485 577.234 1020.333 600.94 C 1008.09 629.529 981.712 647.193 952.744 648.764 C 952.38 648.781 952.024 648.781 951.67 648.771 C 912.13 650.504 852.516 693.068 819.669 753.623 C 810.197 771.083 816.832 792.871 834.281 802.355 C 847.453 809.513 862.682 813.572 879.013 813.572 C 915.864 813.572 946.664 796.447 963.27 780.988 C 968.13 777.092 968.732 775.777 975.39 771.655 C 987.818 763.956 1001.401 759.931 1016.02 760.001 C 1065.138 760.239 1103.626 806.336 1090.866 857.627 C 1085.329 879.883 1069.585 898.975 1048.672 908.376 C 1018.937 921.743 986.245 915.848 963.814 895.713 C 963.524 895.451 963.245 895.175 962.984 894.891 C 946.45 879.652 915.824 863.795 878.74 863.795 C 855.672 863.795 834.876 870.863 819.381 878.948 C 805.38 886.253 796.988 901.612 806.066 914.536 C 807.206 916.157 808.442 917.789 809.93 919.279 C 830.93 940.287 865.741 936.34 885.092 943.963 C 896.2 948.337 907.474 953.071 915.74 961.688 C 944.913 992.101 944.544 1040.604 914.633 1070.544 C 899.961 1085.24 880.453 1093.333 859.698 1093.333">
    <title>gecko-logo</title>
  </path>
</svg>