<svg xmlns="http://www.w3.org/2000/svg" width="22" height="24" viewBox="0 0 22 24">
  <path fill="#4C4F59" fill-rule="evenodd" d="M37.3846255,28.7432 L30.5931655,28.7432 L30.5941795,25.58758 C32.2618455,25.164066 33.4957795,23.652816 33.4957795,21.8532 C33.4957795,19.725464 31.7712515,18 29.6425795,18 C27.5148435,18 25.7893795,19.725542 25.7893795,21.8532 C25.7893795,23.652894 27.0233655,25.16404 28.6920195,25.58758 L28.6920195,28.7432 L21.9026395,28.7432 L21.9026395,33.81112 C20.2339595,34.234634 19,35.745884 19,37.5455 C19,39.673236 20.7255415,41.3987 22.8531995,41.3987 C24.9808575,41.3987 26.7063995,39.673158 26.7063995,37.5455 C26.7063995,35.744792 25.4724135,34.23466 23.8037595,33.81112 L23.8037595,30.71036 L35.4824395,30.71036 L35.4824395,33.81112 C33.8147735,34.234634 32.5808395,35.745884 32.5808395,37.5455 C32.5808395,39.673236 34.3063815,41.3987 36.4340395,41.3987 C38.5627895,41.3987 40.2872395,39.673158 40.2872395,37.5455 C40.2862255,35.745806 39.0522395,34.23466 37.3835595,33.81112 L37.3846255,28.7432 Z" transform="translate(-19 -18)"/>
</svg>
