<svg xmlns="http://www.w3.org/2000/svg" viewBox="-39.9 -40 553 553"><path style="fill:#0b1073" d="M409 255.4C409 255.4 408.9 255.5 408.9 255.5 408.7 256 407.3 256.5 407 255.9 394.4 231 371.1 213.3 345.6 203.3 345 203.1 345.8 202.6 346 202.5 371.7 192.4 394 174.8 407 150.2 407.3 149.7 408.6 149.2 408.9 149.8 422.1 174.3 444.3 192.8 470.3 202.4 470.9 202.6 470.2 203.1 469.9 203.2 456.8 208.2 444.5 215.3 433.7 224.3 433.7 224.4 433.6 224.4 433.6 224.4 423.8 233 414.9 243.7 409 255.4 409 255.4 409 255.4 409 255.4ZM408.1 253.7C413.5 243.8 420.8 234.7 429 227L408.4 203.2 407.7 203.6C414.4 183 409.8 158.9 408.4 152.7 408.2 152.4 408.1 152.2 407.9 151.9 402.3 162.1 395 171 386.7 178.7L407.6 202.8 407.3 202.9C383.7 197.4 356.3 201.2 348.7 202.4 348.5 202.5 348.2 202.6 348 202.7 348.1 202.8 348.2 202.8 348.3 202.8 349.2 203.2 350.2 203.6 351.2 204.1 354.5 205.5 357.7 207.1 360.9 208.8 367.5 212.2 374 215.9 379.9 220.5L407.3 202.9C407.5 203 407.6 203 407.8 203L407.6 202.8 408.1 202.4C401.8 221.7 405.5 244 407.1 251.9 407.5 252.5 407.8 253.1 408.1 253.7ZM468 203C467.9 202.9 467.9 202.9 467.8 202.9 464 201.4 460.2 199.6 456.5 197.7 447.7 193.2 439.6 187.8 432.2 181.5 433.7 182.8 435.1 184 436.6 185.2L408.7 203C431.9 208.3 458.5 204.8 466.7 203.5 467.1 203.3 467.6 203.1 468 203ZM346.9 203.2C346.9 203.2 346.9 203.2 346.8 203.2 346.9 203.2 346.9 203.2 346.9 203.2ZM74.2 145.7L74.2 145.7 116.2 145.5C128.7 145.5 136.3 147.3 141.5 150.9 147.5 154.8 150.8 162.1 150.8 169.6 150.8 185.2 137.6 191.6 128.2 194.1L128.2 194.6C144.8 197 157.9 204.3 157.9 220.7 157.9 231.7 151.7 240.1 141.8 245.5 133.2 250.1 122.2 252 109 252L72 252 72 247.4C86.4 246.4 87.4 245.4 87.4 231.7L87.4 165.5C87.4 152.2 86.6 151.9 73.9 150.9 69.4 150.9 66.7 151 65.3 151.5 63.6 152 62.2 153.7 61.3 155.1 60.8 155.7 60.3 156.4 59.9 157.1 59.5 158.4 59.2 159.7 59.2 161 59.1 163 59 166.2 58.9 170.4 58.9 174.6 58.8 180.7 58.8 188.5L58.8 228.4C58.8 229.9 58.9 231.8 59 234 59.2 238 59.2 241.4 59.2 244.1L59.2 251.8C59.2 258.9 59 265 58.5 270.1 58.1 274.8 57.3 279.4 56.1 284 55 288 53.4 291.9 51.4 295.5 49.2 299.4 46.7 303 43.8 306.4 41.3 309.6 38.5 312.6 35.5 315.4 32.8 317.9 29.9 320.3 26.8 322.4 24.2 324.2 21.4 325.7 18.5 327 16.2 328 13.7 328.5 11.2 328.6 8.4 328.7 5.5 328.3 2.9 327.4 0.7 326.5-0.3 325.4-0.1 323.8 0 322.9 0.3 322 0.8 321.3 1.4 320.2 2.6 318.2 4.5 315.1 6.4 312.5 7.9 311.2 9 311.2L9.4 311.2C10 311.3 10.5 311.5 11 311.7L13.5 312.6C14.5 313.1 15.7 313.4 16.8 313.6 17.9 313.8 19 313.9 20.1 313.9 24.5 313.9 28.6 312.3 31.8 309.4 35.3 306.3 37.8 302.2 39 297.7 39.9 294.1 40.5 290.4 40.8 286.7 41.2 282.6 41.5 278 41.6 273 41.6 268.2 41.7 264.2 41.7 261.1 41.8 258 41.8 255.3 41.8 253.1 41.8 250.9 41.9 248.9 41.9 247.2 42 245.4 42 243.6 42 241.7L42 185.8C42 183.1 42 180.3 41.9 177.6 41.9 174.9 41.7 171.2 41.5 166.6 41.6 164 41.4 161.5 40.9 159 40.6 157.3 39.8 155.7 38.5 154.6 37 153.4 35.1 152.7 33.2 152.4 30.2 151.9 27.2 151.6 24.1 151.6L24.1 144.3C30.2 144.7 35 145 38.7 145.1 42.4 145.3 45.9 145.3 49.2 145.3ZM90.3 306.1L91.5 306.1C90.3 310.3 87.2 312.4 82.4 312.4 79.2 312.4 76.6 311.3 74.5 309.2 72.4 307 71.3 304.2 71.3 300.7 71.3 297.1 72.4 294.2 74.7 292 77 289.8 79.8 288.7 82.9 288.7 84.8 288.7 86.5 289.1 88.1 289.9 89.7 290.7 90.5 291.8 90.5 292.9 90.5 293.4 90.4 293.8 90.1 294.2 89.8 294.6 89.3 294.8 88.8 294.8 87.6 294.8 86.9 294.1 86.6 292.7 86.4 291.7 86.1 291 85.6 290.6 85.2 290.2 84.3 289.9 82.9 289.9 80.5 289.9 78.7 290.8 77.5 292.4 76.3 294.1 75.7 296.6 75.7 299.9 75.7 303.4 76.4 306.1 77.7 308 79 310 80.9 310.9 83.6 310.9 87.1 310.9 89.3 309.3 90.3 306.1ZM92.1 300.5C92.1 297.1 93.2 294.3 95.4 292.1 97.7 289.8 100.4 288.7 103.7 288.7 107 288.7 109.8 289.8 112 292.1 114.3 294.3 115.4 297.1 115.4 300.5 115.4 304.2 114.3 307.1 112 309.2 109.7 311.3 106.9 312.4 103.7 312.4 100.5 312.4 97.7 311.3 95.4 309.1 93.2 307 92.1 304.1 92.1 300.5ZM96.5 300.6C96.5 304.5 97.1 307.2 98.4 308.8 99.7 310.3 101.4 311.1 103.7 311.1 106.1 311.1 107.8 310.3 109.1 308.8 110.3 307.2 110.9 304.5 110.9 300.6 110.9 296.8 110.3 294 109.1 292.4 107.9 290.7 106.1 289.9 103.7 289.9 101.4 289.9 99.6 290.7 98.3 292.4 97.1 294 96.5 296.7 96.5 300.6ZM121 288.7C121.5 289.9 121.8 291.4 121.8 293.3 123 291.7 124.2 290.6 125.6 289.8 127 289.1 128.5 288.7 130.1 288.7 131.9 288.7 133.3 289.1 134.5 289.9 135.6 290.7 136.4 292 136.8 293.6 138.2 292 139.6 290.7 141 289.9 142.4 289.1 143.9 288.7 145.4 288.7 147.1 288.7 148.5 289.1 149.7 289.8 150.8 290.6 151.6 291.5 151.8 292.5 152.1 293.5 152.2 295.1 152.2 297.4L152.2 304C152.2 306.5 152.2 308.1 152.3 308.6 152.4 309.2 152.7 309.6 153.2 309.8 153.5 310 154.1 310.2 154.9 310.2 155.6 310.2 156.2 310 156.5 309.9 157 309.6 157.3 309.2 157.4 308.7 157.5 308.2 157.5 306.6 157.5 304L157.5 297.4C157.5 294.9 157.5 293.4 157.4 292.8 157.3 292.2 157.1 291.8 156.6 291.5 156.1 291.2 155.3 291.1 154 291.1L154 289.9C156.6 289.6 158.7 289.2 160.3 288.7L160.6 288.7C161.1 289.9 161.4 291.4 161.4 293.3 162.6 291.7 163.8 290.6 165.2 289.8 166.6 289.1 168.1 288.7 169.7 288.7 171.5 288.7 173 289.1 174.1 289.9 175.2 290.7 176 292 176.4 293.6 177.8 292 179.2 290.7 180.6 289.9 182 289.1 183.5 288.7 185 288.7 186.7 288.7 188.1 289.1 189.3 289.8 190.5 290.6 191.2 291.5 191.4 292.5 191.7 293.5 191.8 295.1 191.8 297.4L191.8 304C191.8 306.5 191.8 308.1 191.9 308.6 192 309.2 192.3 309.6 192.8 309.8 193.3 310.1 194.1 310.2 195.4 310.2L195.4 311.5 184.5 311.5 184.5 310.2C185.6 310.2 186.5 310.1 186.9 309.9 187.4 309.6 187.7 309.2 187.8 308.7 187.9 308.2 188 306.6 188 304L188 296.6C188 295.2 187.9 294.1 187.7 293.3 187.5 292.6 187.1 291.9 186.4 291.4 185.7 290.8 184.7 290.6 183.6 290.6 182.4 290.6 181.3 291 180.1 291.7 178.9 292.5 177.8 293.7 176.6 295.3L176.6 304C176.6 306.3 176.6 307.8 176.7 308.4 176.7 309 177 309.4 177.4 309.8 177.9 310.1 178.7 310.2 179.8 310.2L179.8 311.5 169.2 311.5 169.2 310.2C170.4 310.2 171.2 310.1 171.7 309.9 172.2 309.6 172.4 309.2 172.6 308.7 172.7 308.2 172.7 306.6 172.7 304L172.7 297.9C172.7 295.9 172.7 294.6 172.5 293.7 172.4 292.8 171.9 292.1 171.1 291.5 170.4 290.9 169.4 290.5 168.3 290.5 167.2 290.5 166 290.9 164.9 291.6 163.7 292.3 162.6 293.4 161.4 294.8L161.4 304C161.4 306.4 161.4 307.9 161.5 308.4 161.5 309 161.8 309.5 162.3 309.8 162.7 310.1 163.6 310.2 164.8 310.2L164.8 311.5 154 311.5 154 310.2C154.4 310.2 154.6 310.2 154.9 310.2 155.2 310.2 155.5 310.2 155.8 310.2L155.8 311.5 144.9 311.5 144.9 310.2C146 310.2 146.8 310.1 147.3 309.9 147.8 309.6 148.1 309.2 148.2 308.7 148.3 308.2 148.4 306.6 148.4 304L148.4 296.6C148.4 295.2 148.3 294.1 148.1 293.3 147.9 292.6 147.5 291.9 146.8 291.4 146.1 290.8 145.1 290.6 144 290.6 142.8 290.6 141.7 291 140.5 291.7 139.3 292.5 138.2 293.7 137 295.3L137 304C137 306.3 137 307.8 137.1 308.4 137.1 309 137.4 309.4 137.8 309.8 138.3 310.1 139 310.2 140.2 310.2L140.2 311.5 129.6 311.5 129.6 310.2C130.8 310.2 131.6 310.1 132.1 309.9 132.5 309.6 132.8 309.2 132.9 308.7 133.1 308.2 133.1 306.6 133.1 304L133.1 297.9C133.1 295.9 133.1 294.6 132.9 293.7 132.7 292.8 132.3 292.1 131.5 291.5 130.8 290.9 129.8 290.5 128.7 290.5 127.6 290.5 126.4 290.9 125.3 291.6 124.1 292.3 123 293.4 121.8 294.8L121.8 304C121.8 306.4 121.8 307.9 121.9 308.4 121.9 309 122.2 309.5 122.7 309.8 123.1 310.1 124 310.2 125.2 310.2L125.2 311.5 114.4 311.5 114.4 310.2C115.6 310.2 116.4 310.1 116.9 309.9 117.4 309.6 117.7 309.2 117.8 308.7 117.9 308.2 117.9 306.6 117.9 304L117.9 297.4C117.9 294.9 117.9 293.4 117.8 292.8 117.7 292.2 117.5 291.8 117 291.5 116.5 291.2 115.7 291.1 114.4 291.1L114.4 289.9C117 289.6 119.1 289.2 120.7 288.7ZM214.1 297L198.9 297C198.8 298 198.8 298.8 198.8 299.3 198.8 303.2 199.4 306.1 200.6 308 201.8 309.9 203.6 310.9 206 310.9 209.2 310.9 211.5 309.5 212.9 306.5L214.1 306.5C213.6 308.4 212.4 309.8 210.7 310.8 209.1 311.8 207.2 312.4 205.2 312.4 203.4 312.4 201.6 311.9 199.9 311 198.3 310 196.9 308.7 195.9 307 194.8 305.3 194.3 303.2 194.3 300.7 194.3 297.3 195.3 294.4 197.4 292.1 199.4 289.8 201.9 288.7 205 288.7 207.9 288.7 210.1 289.5 211.7 291.3 213.2 293 214.1 294.9 214.1 297ZM209.5 295.9C209.5 295.5 209.5 295.1 209.5 294.8 209.5 293.2 209.1 292 208.2 291.2 207.2 290.3 206.1 289.8 204.8 289.8 201.5 289.8 199.6 291.9 199 295.9ZM222.1 294.3C222.7 292.7 223.6 291.3 225 290.3 226.4 289.2 227.7 288.7 229 288.7 230.2 288.7 231.1 289 231.8 289.8 232.5 290.5 232.8 291.2 232.8 292 232.8 292.5 232.6 293 232.3 293.4 231.9 293.7 231.5 293.9 231 293.9 230.1 293.9 229.4 293.3 229 291.9 228.7 291 228.2 290.6 227.5 290.6 226.8 290.6 225.9 291.1 224.8 292.2 223.7 293.2 223 294.3 222.7 295.4 222.4 296.5 222.3 298.1 222.3 300L222.3 304C222.3 306.3 222.3 307.8 222.3 308.4 222.4 309 222.7 309.4 223.1 309.8 223.6 310.1 224.4 310.2 225.5 310.2L226.3 310.2 226.3 311.5 214.6 311.5 214.6 310.2 215.2 310.2C216.2 310.2 217 310.1 217.4 309.8 217.9 309.5 218.2 309.1 218.3 308.6 218.4 308 218.4 306.5 218.4 304L218.4 297.8C218.4 295.4 218.4 293.9 218.3 293.4 218.3 292.7 218 292.3 217.6 292 217.1 291.6 216.3 291.5 215.2 291.5L214.6 291.5 214.6 290.3C216.3 290.1 218.5 289.5 221.2 288.7 221.7 290.1 222 291.9 222.1 294.3ZM250.1 306.1L251.3 306.1C250.1 310.3 247 312.4 242.2 312.4 239 312.4 236.4 311.3 234.3 309.2 232.2 307 231.1 304.2 231.1 300.7 231.1 297.2 232.2 294.2 234.5 292 236.8 289.8 239.6 288.7 242.7 288.7 244.6 288.7 246.3 289.1 247.9 289.9 249.5 290.8 250.3 291.8 250.3 293 250.3 293.4 250.2 293.8 249.8 294.2 249.6 294.6 249.1 294.8 248.6 294.8 247.4 294.8 246.7 294.1 246.4 292.7 246.2 291.7 245.9 291 245.4 290.6 245 290.2 244.1 290 242.7 290 240.3 290 238.5 290.8 237.3 292.4 236.1 294.1 235.5 296.6 235.5 299.9 235.5 303.4 236.2 306.1 237.5 308 238.8 310 240.7 310.9 243.3 310.9 246.9 310.9 249.1 309.3 250.1 306.1ZM253.5 277.5C253.5 276.7 253.8 276.1 254.3 275.5 254.9 275 255.5 274.7 256.3 274.7 257.1 274.7 257.7 275 258.2 275.5 258.8 276.1 259 276.7 259 277.5 259 278.3 258.8 278.9 258.2 279.5 257.7 280 257.1 280.3 256.3 280.3 255.5 280.3 254.9 280 254.3 279.5 253.8 278.9 253.5 278.3 253.5 277.5ZM258.7 288.7L258.7 304C258.7 306.3 258.7 307.8 258.8 308.4 258.8 309 259.1 309.4 259.5 309.8 260 310.1 260.8 310.2 261.9 310.2L262.5 310.2 262.5 311.5 250.7 311.5 250.7 310.2 251.6 310.2C252.9 310.2 253.7 310.1 254.1 309.7 254.5 309.3 254.7 308.9 254.7 308.4 254.8 307.9 254.8 306.4 254.8 304L254.8 297.3C254.8 294.7 254.7 293.2 254.5 292.6 254.2 292 253.9 291.7 253.5 291.5 253.1 291.4 252.4 291.3 251.4 291.3L250.7 291.3 250.7 290.1C253.9 289.8 256.3 289.3 258.1 288.7ZM284.9 307.5L285.9 307.5C285.8 308.6 285.6 309.5 285.2 310.2 285.7 310.1 286.1 310 286.3 309.8 286.8 309.5 287.1 309.1 287.1 308.6 287.2 308 287.3 306.5 287.3 304L287.3 282.3C287.3 280 287.1 278.5 286.7 277.9 286.3 277.3 285.3 277 283.7 277L283.7 275.8C284.8 275.8 286 275.7 287.5 275.4 289 275.2 290 274.9 290.5 274.7L291.1 274.7 291.1 304C291.1 306.3 291.2 307.8 291.2 308.4 291.3 309 291.5 309.4 292 309.8 292.4 310.1 293.2 310.2 294.4 310.2L295 310.2 295 311.5 283.9 311.5C283.2 311.8 282.4 312 281.4 312 280.2 312 279.2 311.7 278.5 311.1 277.8 310.4 277.4 309.5 277.2 308.2 275.4 309.5 273.7 310.4 272.3 311.1 270.8 311.7 269.5 312 268.3 312 266.8 312 265.6 311.6 264.5 310.7 263.4 309.9 262.9 308.8 262.9 307.3 262.9 305.5 263.8 303.9 265.6 302.5 267.4 301.2 269.8 299.8 273 298.5L277.2 296.8 277.2 295.8C277.2 294.2 277.1 293.1 276.9 292.5 276.7 291.8 276.2 291.2 275.3 290.7 274.5 290.1 273.4 289.8 272.1 289.8 269.4 289.8 267.9 290.7 267.6 292.5 267.3 294.3 266.6 295.3 265.4 295.3 264.3 295.3 263.7 294.7 263.7 293.7 263.7 292.7 264.5 291.6 265.9 290.4 267.4 289.3 269.6 288.7 272.7 288.7 274.9 288.7 276.7 289 277.9 289.7 279.2 290.5 280 291.3 280.4 292.2 280.8 293.1 281 294.5 281 296.4L281 305.2C281 307.3 281.1 308.6 281.3 309.2 281.5 309.8 282 310.1 282.7 310.1 283.9 310.1 284.6 309.2 284.9 307.5ZM277.2 298.1L274.2 299.3C269.6 301.1 267.3 303.5 267.3 306.3 267.3 307.5 267.6 308.4 268.2 309.1 268.8 309.7 269.6 310.1 270.5 310.1 271.4 310.1 272.3 309.8 273.4 309.2 274.5 308.7 275.8 307.9 277.2 306.8ZM319.8 291.5C321.3 289.8 322.8 288.9 324.4 288.9 325.2 288.9 325.9 289.1 326.4 289.6 326.5 289.7 326.6 289.9 326.7 290 328.1 289.7 329.8 289.3 331.8 288.7 332.4 290.1 332.6 291.9 332.7 294.3 333.3 292.7 334.3 291.3 335.6 290.3 337 289.2 338.3 288.7 339.6 288.7 340.8 288.7 341.8 289 342.4 289.8 343.1 290.5 343.4 291.2 343.4 292 343.4 292.5 343.3 293 342.9 293.4 342.6 293.7 342.2 293.9 341.7 293.9 340.8 293.9 340.1 293.3 339.6 291.9 339.3 291 338.8 290.6 338.2 290.6 337.4 290.6 336.5 291.1 335.4 292.2 334.3 293.2 333.7 294.3 333.4 295.4 333.1 296.5 332.9 298.1 332.9 300L332.9 304C332.9 306.3 332.9 307.8 333 308.4 333.1 309 333.3 309.4 333.8 309.8 334.2 310.1 335 310.2 336.1 310.2L336.9 310.2 336.9 311.5 325.3 311.5 325.3 310.2 325.8 310.2C326.9 310.2 327.6 310.1 328.1 309.8 328.6 309.5 328.8 309.1 328.9 308.6 329 308 329.1 306.5 329.1 304L329.1 297.8C329.1 295.4 329 293.9 328.9 293.4 328.9 292.7 328.6 292.3 328.2 292 327.9 291.8 327.6 291.6 327.1 291.5 326.9 292.4 326.4 292.9 325.5 292.9 324.9 292.9 324.4 292.5 323.9 291.8 323.6 291.1 323.1 290.8 322.7 290.8 322 290.8 321.3 291.2 320.5 292.2 321.4 293.6 321.9 295.2 321.9 296.8 321.9 299 321.1 300.9 319.6 302.5 318 304.2 315.4 305.1 311.8 305.2 308 305.3 306.1 306.1 306.1 307.5 306.1 308.1 306.6 308.6 307.4 308.9 308.2 309.2 310 309.4 312.7 309.5 315.6 309.7 317.9 309.9 319.5 310.3 321.1 310.7 322.4 311.5 323.3 312.8 324.2 314 324.7 315.4 324.7 317.1 324.7 319.4 323.8 321.3 321.8 322.8 319.9 324.2 317.1 325 313.5 325 310.2 325 307.5 324.3 305.5 323 303.5 321.7 302.5 320.1 302.5 318.2 302.5 317.1 302.8 316.2 303.4 315.5 304 314.8 304.8 314.4 305.8 314.4 306.1 314.4 306.4 314.5 306.6 314.6 305.5 315.8 304.9 317.1 304.9 318.4 304.9 320 305.7 321.3 307.1 322.3 308.6 323.3 310.8 323.9 313.7 323.9 316.4 323.9 318.4 323.3 319.8 322.3 321.3 321.2 322 319.9 322 318.3 322 316.5 321.4 315.3 320.1 314.5 318.8 313.8 316.4 313.4 313.1 313.2 309.3 313.1 306.8 312.6 305.6 311.8 304.5 311.1 303.9 310.1 303.9 308.8 303.9 306.5 305.6 305 308.8 304.4 307.1 303.4 305.9 302.3 305 301 304.1 299.7 303.7 298.3 303.7 296.7 303.7 294.5 304.6 292.6 306.3 291 308.1 289.5 310.2 288.7 312.6 288.7 315.6 288.7 318 289.6 319.8 291.5ZM307.7 297.3C307.7 299.6 308.2 301.3 309.1 302.4 310.1 303.4 311.3 304 312.8 304 314.1 304 315.3 303.5 316.2 302.4 317.2 301.3 317.7 299.5 317.7 296.9 317.7 294.2 317.2 292.4 316.2 291.4 315.1 290.4 314 289.9 312.7 289.9 311 289.9 309.8 290.5 309 291.7 308.1 293 307.7 294.8 307.7 297.3ZM341.8 300.5C341.8 297.1 342.9 294.3 345.2 292.1 347.4 289.8 350.2 288.7 353.5 288.7 356.8 288.7 359.6 289.8 361.8 292.1 364 294.3 365.2 297.1 365.2 300.5 365.2 304.2 364 307.1 361.7 309.2 359.5 311.3 356.7 312.4 353.5 312.4 350.2 312.4 347.5 311.3 345.2 309.1 342.9 307 341.8 304.1 341.8 300.5ZM346.3 300.6C346.3 304.5 346.9 307.2 348.2 308.8 349.4 310.3 351.2 311.1 353.5 311.1 355.8 311.1 357.6 310.3 358.8 308.8 360.1 307.2 360.7 304.5 360.7 300.6 360.7 296.8 360.1 294 358.9 292.4 357.6 290.7 355.8 289.9 353.5 289.9 351.1 289.9 349.3 290.7 348.1 292.4 346.9 294 346.3 296.7 346.3 300.6ZM387.2 289.6L387.2 303.9C387.2 306.3 387.2 307.8 387.3 308.4 387.3 309 387.6 309.5 388 309.8 388.5 310.1 389.3 310.2 390.5 310.2L390.5 311.5C387.8 311.5 385.8 311.8 384.6 312.3L384.2 312.3C383.7 311.3 383.4 309.6 383.3 307.2 382.2 308.9 381 310.2 379.6 311.1 378.2 311.9 376.6 312.4 374.9 312.4 373.5 312.4 372.2 312 371.1 311.4 369.9 310.7 369.2 309.9 368.7 308.9 368.3 307.9 368.1 306.5 368.1 304.5L368.1 297.1C368.1 294.5 368.1 293 368 292.4 367.9 291.9 367.6 291.5 367.1 291.2 366.7 290.9 365.8 290.8 364.5 290.8L364.5 289.6 372 289.6 372 304.8C372 306.3 372.1 307.3 372.2 308 372.4 308.7 372.9 309.3 373.6 309.8 374.3 310.3 375.2 310.6 376.2 310.6 377.5 310.6 378.8 310.1 380.1 309.2 381.3 308.3 382.2 307.4 382.6 306.4 383.1 305.3 383.3 303.9 383.3 302L383.3 297.1C383.3 294.7 383.3 293.2 383.2 292.7 383.2 292.2 383 291.7 382.5 291.4 382.2 291 381.3 290.8 380.1 290.8L379.5 290.8 379.5 289.6ZM394.3 288.7L395 288.7C395.3 289.7 395.5 290.9 395.5 292.3 396.6 291.1 397.8 290.2 399.1 289.6 400.4 289 401.8 288.7 403.3 288.7 406.3 288.7 408.9 289.7 410.9 291.9 412.9 294 413.9 296.8 413.9 300.3 413.9 303.7 412.9 306.6 410.8 308.9 408.8 311.2 406.2 312.4 402.9 312.4 401.5 312.4 400.2 312.1 399 311.5 397.7 311 396.6 310.2 395.5 309.1L395.5 317.4C395.5 320 395.5 321.5 395.6 322.1 395.7 322.6 396 323 396.5 323.3 396.9 323.6 397.8 323.7 399 323.7L399 325 387.6 325 387.6 323.7 388.4 323.7C389.7 323.7 390.5 323.5 390.9 323.2 391.3 322.8 391.5 322.4 391.5 321.9 391.6 321.4 391.6 319.9 391.6 317.4L391.6 297.5C391.6 295.2 391.6 293.7 391.5 293.1 391.5 292.5 391.2 292 390.8 291.7 390.3 291.4 389.5 291.2 388.4 291.2L387.6 291.2 387.6 290C389.4 289.8 391.6 289.4 394.3 288.7ZM395.5 307.3C396.4 308.5 397.4 309.4 398.5 310 399.6 310.6 400.7 310.9 401.9 310.9 404 310.9 405.7 310 407.2 308.3 408.7 306.6 409.5 303.8 409.5 300 409.5 296.8 408.7 294.3 407.3 292.7 405.8 291.1 404.1 290.3 402.1 290.3 400.9 290.3 399.7 290.6 398.6 291.2 397.5 291.8 396.5 292.8 395.5 294ZM440.4 306.5L440.2 311.5 426 311.5 426 310.9 426.5 310.9C427.2 310.9 427.7 310.8 428 310.6 428.3 310.4 428.4 310.2 428.5 309.8 428.6 309.4 428.6 308.5 428.6 307.1L428.6 298.9C428.6 297.6 428.6 296.7 428.5 296.3 428.4 295.9 428.3 295.7 428 295.5 427.8 295.4 427.2 295.3 426.4 295.3L426 295.3 426 294.7 434 294.7 434 295.3 433.3 295.3C432.5 295.3 431.9 295.4 431.7 295.5 431.4 295.6 431.3 295.9 431.2 296.2 431.1 296.6 431 297.5 431 298.9L431 307.7C431 308.9 431.1 309.6 431.1 309.9 431.2 310.2 431.4 310.5 431.7 310.7 432 310.8 432.6 310.9 433.6 310.9L434.8 310.9C435.9 310.9 436.6 310.8 437.1 310.6 437.6 310.4 438.1 310.1 438.5 309.4 439 308.8 439.4 307.9 439.8 306.5ZM455.4 306.5L455.3 311.5 441 311.5 441 310.9 441.5 310.9C442.2 310.9 442.7 310.8 443 310.6 443.3 310.4 443.5 310.2 443.5 309.8 443.6 309.4 443.7 308.5 443.7 307.1L443.7 298.9C443.7 297.6 443.6 296.7 443.5 296.3 443.5 295.9 443.3 295.7 443 295.5 442.8 295.4 442.3 295.3 441.4 295.3L441 295.3 441 294.7 449.1 294.7 449.1 295.3 448.3 295.3C447.5 295.3 447 295.4 446.7 295.5 446.5 295.6 446.3 295.9 446.2 296.2 446.1 296.6 446.1 297.5 446.1 298.9L446.1 307.7C446.1 308.9 446.1 309.6 446.2 309.9 446.2 310.2 446.4 310.5 446.7 310.7 447 310.8 447.6 310.9 448.6 310.9L449.9 310.9C450.9 310.9 451.7 310.8 452.2 310.6 452.7 310.4 453.1 310.1 453.6 309.4 454 308.8 454.4 307.9 454.8 306.5ZM470.7 305.2L471.2 305.2 471.2 311 470.7 311C470.6 310.4 470.3 309.8 469.9 309.3 468.4 310.9 466.5 311.8 464.3 311.8 461.8 311.8 459.9 311 458.3 309.5 456.8 307.9 456 305.9 456 303.4 456 301.7 456.4 300.2 457.1 298.7 457.8 297.3 458.8 296.2 460 295.5 461.3 294.8 462.7 294.4 464.2 294.4 465.5 294.4 466.6 294.7 467.6 295.2 468.6 295.7 469.4 296.3 469.9 296.9 470.3 296.2 470.5 295.5 470.5 294.7L471.1 294.7 471.2 301.1 470.7 301.1C470.3 298.8 469.6 297.2 468.4 296.4 467.3 295.5 466 295 464.6 295 462.8 295 461.4 295.8 460.4 297.2 459.4 298.6 458.8 300.6 458.8 303.3 458.8 305.8 459.4 307.7 460.5 309.1 461.7 310.4 463.1 311.1 464.7 311.1 465.6 311.1 466.6 310.9 467.5 310.4 468.4 310 469.2 309.2 469.7 308.2 470.3 307.2 470.6 306.2 470.7 305.2ZM109.3 192.6C127.7 192.6 135.4 185.3 135.4 171.6 135.4 160.4 129.1 150.6 113.1 150.6 109 150.6 105.3 151.2 103.6 152.2 102.1 153.2 101.4 155 101.4 160.4L101.4 192.6ZM101.4 231.6C101.4 243.4 104.6 246.5 115.3 246.5 129.1 246.4 141.3 239.5 141.3 222.4 141.3 205.5 129.6 198.1 109.2 198.1L101.5 198.1ZM225.5 238.1C215 251.1 203.4 254 198.2 254 177.6 254 165.6 237.6 165.6 219 165.5 208.4 169.4 198.1 176.6 190.3 183.5 182.7 192.6 178.3 201.1 178.3L201.3 178.3C215.2 178.3 226.4 190.4 226.4 203.3 226.4 206.6 225.5 207.9 222.5 208.5 219.7 209 198.7 210.7 178.8 211.3 179 233.7 192.1 242.9 203.8 242.9 210.5 242.9 216.8 240.2 222.9 234.7ZM197.1 184.4C189.5 184.4 182.2 191.3 179.7 204.6 189 204.6 198.2 204.4 208 204.1 211 204.1 212 203.1 212 200.8 212.1 192.3 206.4 184.4 197.2 184.4ZM285.6 254C282.7 253.8 280 252.7 277.7 250.9 275.8 248.8 274.4 246.3 273.7 243.5 267 247.9 259 254 254 254 242.9 254.1 233.9 245.1 233.9 234 233.9 226 238.2 220.9 247.4 217.8 257.4 214.5 269.7 210 273.4 207.1L273.4 204.1C273.4 192.3 267.8 185.5 259.4 185.5 256.5 185.4 253.7 186.6 251.8 188.8 249.7 191 248.2 194.6 246.8 199.5 246.5 201.9 244.4 203.6 242 203.4 239 203.4 234.6 200.2 234.6 196.4 234.6 193.9 236.8 192.1 240 189.8 244.7 186.5 255.5 180.1 265.1 178.3 270 178.2 274.9 179.8 278.8 182.7 284.7 187.5 286.4 194.2 286.4 202.7L286.4 233.3C286.4 240.7 289.4 243.1 292.2 243.1 294.3 243 296.4 242.4 298.2 241.3L299.9 245.6ZM273.4 212.6C269.9 214.5 261.8 217.9 258.3 219.5 251.8 222.5 248.1 225.6 248.1 231.5 248.1 240.1 254.8 244.2 260 244.2 264.3 244 270.2 241.2 273.4 238.3ZM306.2 252.1L306.2 248.4C315.4 247.5 316.7 246.7 316.7 237.3L316.7 170.2C316.7 160.5 315.8 160.1 306.7 159.4L306.7 156C313.9 155 321.1 153.3 328.1 151L328.1 237.3C328.1 246.6 329.2 247.5 338.5 248.3L338.5 252Z"/><line style="stroke:2px solid #0b1073" x1="70.4" y1="264.8" x2="473.3" y2="264.8"/></svg>