<?xml version="1.0" encoding="utf-8"?>
<svg id="Layer_1" data-name="Layer 1" viewBox="-39.89699935913086 -40.029998779296875 553 553" xmlns="http://www.w3.org/2000/svg">
  <defs>
    <style>.cls-1,.cls-16{fill:none;}.cls-2,.cls-4{fill:#0b1073;}.cls-3{fill:#32478e;}.cls-4{font-size:54.82px;font-family:Baskerville, Baskerville;letter-spacing:-0.05em;}.cls-5{letter-spacing:-0.08em;}.cls-6{letter-spacing:-0.07em;}.cls-7{letter-spacing:-0.05em;}.cls-8{letter-spacing:-0.07em;}.cls-9{letter-spacing:-0.06em;}.cls-10{letter-spacing:-0.07em;}.cls-11{letter-spacing:-0.1em;}.cls-12{font-size:48.95px;letter-spacing:0.05em;}.cls-13,.cls-14,.cls-15{font-size:25.3px;}.cls-13{letter-spacing:-0.01em;}.cls-14{letter-spacing:-0.03em;}.cls-15{letter-spacing:-0.03em;}.cls-16{stroke:#0b1073;stroke-width:2px;}</style>
  </defs>
  <title>JBcomgroup-llc_final</title>
  <path class="cls-1" d="M 432.956 224.229 C 422.842 233.129 414.396 243.762 408.016 255.629 C 401.445 243.514 392.754 232.676 382.356 223.629 C 367.956 211.299 346.436 202.869 346.436 202.869 C 346.436 202.869 367.956 194.439 383.076 181.489 C 398.546 168.219 408.016 150.089 408.016 150.089 C 408.016 150.089 417.856 168.539 432.246 180.869 C 449.156 195.369 469.606 202.869 469.606 202.869 C 469.606 202.869 448.796 210.659 432.956 224.229 Z"/>
  <path class="cls-2" d="M 432.196 224.109 C 422.126 232.919 413.106 243.769 407.056 255.769 L 408.986 255.379 C 402.826 243.169 393.486 232.179 383.256 223.249 C 376.576 217.419 368.756 212.849 360.926 208.759 C 357.726 207.089 354.466 205.549 351.166 204.079 C 350.166 203.649 349.236 203.239 348.266 202.839 C 346.856 202.249 347.986 202.739 346.846 203.179 C 372.976 192.869 395.746 175.059 408.976 149.929 L 407.046 150.319 C 418.286 171.229 435.506 186.899 456.486 197.719 C 460.176 199.619 463.956 201.359 467.816 202.899 C 468.916 203.339 469.106 202.549 468.816 202.649 C 467.396 203.199 465.986 203.809 464.586 204.419 C 452.891 209.399 441.97 216.03 432.156 224.109 C 431.326 224.809 433.256 224.719 433.686 224.349 C 444.506 215.331 456.754 208.179 469.926 203.189 C 470.156 203.099 470.926 202.609 470.336 202.399 C 444.336 192.769 422.096 174.279 408.946 149.799 C 408.606 149.169 407.266 149.719 407.016 150.189 C 394.016 174.829 371.666 192.379 346.016 202.489 C 345.786 202.579 345.016 203.059 345.606 203.279 C 371.146 213.349 394.426 230.969 406.996 255.879 C 407.316 256.509 408.686 255.959 408.926 255.489 C 414.866 243.709 423.796 232.979 433.676 224.339 C 434.536 223.639 432.616 223.739 432.196 224.109 Z"/>
  <path class="cls-3" d="M 409.166 216.879"/>
  <path class="cls-2" d="M 436.596 185.199 C 424.939 175.84 415.226 164.29 408.006 151.199 C 408.006 151.199 415.486 179.709 407.736 203.629"/>
  <path class="cls-2" d="M 379.226 220.859 C 390.882 230.217 400.591 241.768 407.806 254.859 C 407.806 254.859 400.336 226.349 408.086 202.429"/>
  <path class="cls-2" d="M 429.536 227.579 C 438.636 218.929 454.036 208.989 469.206 203.079 C 469.206 203.079 435.946 209.479 408.046 202.839"/>
  <path class="cls-2" d="M 407.806 203.029 C 379.906 196.389 346.646 202.789 346.646 202.789 C 361.816 196.879 377.216 186.939 386.316 178.289"/>
  <path class="cls-2" d="M 74.156 145.659 L 74.156 150.919 C 69.466 150.919 66.706 150.979 65.256 151.459 C 63.576 152.019 62.166 153.729 61.256 155.109 C 60.761 155.738 60.32 156.407 59.936 157.109 C 59.467 158.37 59.227 159.704 59.226 161.049 C 59.086 163.049 58.986 166.162 58.926 170.389 C 58.866 174.616 58.833 180.666 58.826 188.539 L 58.826 228.379 C 58.826 229.906 58.893 231.772 59.026 233.979 C 59.16 237.979 59.226 241.369 59.226 244.149 L 59.226 251.829 C 59.226 258.882 58.99 264.969 58.516 270.089 C 58.117 274.785 57.304 279.436 56.086 283.989 C 54.994 288 53.43 291.867 51.426 295.509 C 49.236 299.367 46.691 303.012 43.826 306.399 C 41.324 309.636 38.544 312.647 35.516 315.399 C 32.772 317.928 29.859 320.267 26.796 322.399 C 24.193 324.204 21.408 325.733 18.486 326.959 C 16.183 327.978 13.704 328.542 11.186 328.619 C 8.364 328.709 5.549 328.288 2.876 327.379 C 0.716 326.546 -0.284 325.369 -0.124 323.849 C -0.046 322.922 0.267 322.031 0.786 321.259 C 1.393 320.219 2.643 318.179 4.536 315.139 C 6.43 312.512 7.916 311.199 8.996 311.199 L 9.406 311.199 C 9.956 311.341 10.497 311.514 11.026 311.719 L 13.456 312.649 C 14.541 313.063 15.663 313.374 16.806 313.579 C 17.908 313.781 19.026 313.885 20.146 313.889 C 24.451 313.898 28.606 312.308 31.806 309.429 C 35.325 306.333 37.83 302.249 38.996 297.709 C 39.882 294.094 40.494 290.417 40.826 286.709 C 41.233 282.562 41.503 277.999 41.636 273.019 C 41.636 268.179 41.67 264.202 41.736 261.089 C 41.803 257.976 41.836 255.309 41.836 253.089 C 41.836 250.882 41.87 248.912 41.936 247.179 C 42.003 245.446 42.036 243.612 42.036 241.679 L 42.036 185.829 C 42.036 183.062 42.003 180.329 41.936 177.629 C 41.87 174.929 41.736 171.246 41.536 166.579 C 41.591 164.042 41.387 161.505 40.926 159.009 C 40.64 157.298 39.78 155.735 38.486 154.579 C 36.95 153.405 35.133 152.654 33.216 152.399 C 30.199 151.916 27.152 151.639 24.096 151.569 L 24.096 144.309 C 30.176 144.722 35.043 144.999 38.696 145.139 C 42.35 145.279 45.863 145.349 49.236 145.349"/>
  <text class="cls-4" style="white-space: pre;" x="69.336" y="311.469">c<tspan class="cls-5" x="90.016" y="311.469" style="font-size: 54.8px; word-spacing: 0px; letter-spacing: -4.38px;" transform="">omme</tspan><tspan class="cls-6" x="212.926" y="311.469" style="font-size: 54.8px; word-spacing: 0px; letter-spacing: -3.84px;" transform="">r</tspan><tspan class="cls-7" x="229.136" y="311.469" style="font-size: 54.8px; word-spacing: 0px; letter-spacing: -2.74px;" transform="">ci</tspan><tspan class="cls-8" x="260.776" y="311.469" style="font-size: 54.8px; word-spacing: 0px; letter-spacing: -3.84px;" transform="">al </tspan><tspan class="cls-9" x="300.986" y="311.469" style="font-size: 54.8px; word-spacing: 0px; letter-spacing: -3.29px;" transform="">g</tspan><tspan class="cls-10" x="323.566" y="311.469" style="font-size: 54.8px; word-spacing: 0px; letter-spacing: -3.84px;" transform="">r</tspan><tspan class="cls-8" x="339.776" y="311.469" style="font-size: 54.8px; word-spacing: 0px; letter-spacing: -3.84px;" transform="">ou</tspan><tspan class="cls-11" x="387.516" y="311.469" style="font-size: 54.8px; word-spacing: 0px; letter-spacing: -5.48px;" transform="">p</tspan><tspan class="cls-12" x="410.596" y="311.469" style="font-size: 49px; word-spacing: 0px; letter-spacing: 2.45px;" transform=""> </tspan><tspan class="cls-13" x="425.286" y="311.469" style="font-size: 25.3px; word-spacing: 0px; letter-spacing: -0.25px;" transform="">L</tspan><tspan class="cls-14" x="440.316" y="311.469" style="font-size: 25.3px; word-spacing: 0px; letter-spacing: -0.76px;" transform="">L</tspan><tspan class="cls-15" x="454.716" y="311.469" style="font-size: 25.3px; word-spacing: 0px; letter-spacing: -0.76px;" transform="">C</tspan></text>
  <line class="cls-16" x1="70.356" y1="264.759" x2="473.346" y2="264.759"/>
  <path class="cls-2" d="M 128.216 194.579 C 144.796 197.039 157.856 204.269 157.856 220.689 C 157.856 231.689 151.666 240.069 141.776 245.479 C 133.236 250.079 122.186 252.049 108.956 252.049 L 71.956 252.049 L 71.956 247.449 C 86.356 246.449 87.356 245.449 87.356 231.689 L 87.356 165.519 C 87.356 151.889 86.536 151.849 73.136 150.859 L 73.136 145.669 L 116.186 145.539 C 128.746 145.539 136.266 147.289 141.456 150.899 C 147.456 154.839 150.836 162.059 150.836 169.619 C 150.836 185.219 137.606 191.619 128.226 194.089 Z M 109.296 192.579 C 127.716 192.579 135.416 185.349 135.416 171.579 C 135.416 160.409 129.056 150.579 113.146 150.579 C 108.956 150.579 105.276 151.229 103.606 152.219 C 102.096 153.219 101.426 155.009 101.426 160.429 L 101.426 192.579 Z M 101.426 231.579 C 101.426 243.409 104.606 246.529 115.326 246.529 C 129.056 246.369 141.326 239.469 141.326 222.389 C 141.326 205.479 129.606 198.089 109.176 198.089 L 101.476 198.089 Z"/>
  <path class="cls-2" d="M 225.536 238.099 C 214.986 251.099 203.436 254.029 198.246 254.029 C 177.646 254.029 165.596 237.609 165.596 219.029 C 165.49 208.392 169.442 198.115 176.646 190.289 C 183.506 182.739 192.556 178.289 201.086 178.289 L 201.256 178.289 C 215.156 178.289 226.376 190.439 226.376 203.289 C 226.376 206.569 225.536 207.889 222.526 208.549 C 219.676 209.039 198.746 210.679 178.826 211.339 C 178.996 233.669 192.056 242.869 203.776 242.869 C 210.476 242.869 216.836 240.239 222.866 234.659 Z M 197.076 184.399 C 189.536 184.399 182.176 191.299 179.656 204.599 C 189.036 204.599 198.246 204.429 207.956 204.099 C 210.956 204.099 211.956 203.099 211.956 200.819 C 212.126 192.279 206.426 184.399 197.226 184.399 Z"/>
  <path class="cls-2" d="M 285.606 254.029 C 282.721 253.839 279.968 252.748 277.736 250.909 C 275.803 248.821 274.427 246.28 273.736 243.519 C 267.036 247.949 258.996 254.029 253.976 254.029 C 242.895 254.079 233.886 245.11 233.886 234.029 C 233.886 226.029 238.236 220.899 247.446 217.769 C 257.446 214.489 269.716 210.049 273.446 207.099 L 273.446 204.099 C 273.446 192.279 267.756 185.539 259.386 185.539 C 256.505 185.439 253.732 186.648 251.846 188.829 C 249.666 190.959 248.166 194.579 246.846 199.499 C 246.488 201.871 244.381 203.58 241.986 203.439 C 238.986 203.439 234.616 200.159 234.616 196.379 C 234.616 193.919 236.796 192.109 239.976 189.809 C 244.666 186.519 255.546 180.119 265.096 178.309 C 270.04 178.209 274.874 179.769 278.826 182.739 C 284.686 187.499 286.366 194.229 286.366 202.739 L 286.366 233.279 C 286.366 240.669 289.366 243.129 292.226 243.129 C 294.345 243.027 296.405 242.406 298.226 241.319 L 299.896 245.589 Z M 273.376 212.649 C 269.856 214.459 261.826 217.899 258.306 219.549 C 251.776 222.549 248.096 225.629 248.096 231.549 C 248.096 240.089 254.796 244.199 259.986 244.199 C 264.336 244.039 270.196 241.199 273.376 238.289 Z"/>
  <path class="cls-2" d="M 306.236 252.059 L 306.236 248.369 C 315.356 247.519 316.656 246.669 316.656 237.299 L 316.656 170.179 C 316.656 160.529 315.786 160.099 306.656 159.389 L 306.656 155.979 C 313.938 155.011 321.109 153.336 328.066 150.979 L 328.066 237.259 C 328.066 246.619 329.226 247.479 338.486 248.329 L 338.486 252.019 Z"/>
</svg>