<?xml version="1.0" encoding="utf-8"?>
<svg version="1.1" id="Layer_1" x="0px" y="0px" viewBox="214.9810028076172 115.69999694824219 240.6999969482422 240" style="enable-background:new 0 0 600 530;" xmlns="http://www.w3.org/2000/svg">
  <style type="text/css">
	.st0{fill:#3E6617;}
	.st1{fill:#C4E661;}
	.st2{fill:#EC3686;}
	.st3{font-family:'OpenSans-Regular';}
	.st4{font-size:37.9876px;}
	.st5{font-family:'OpenSans-Light';}
	.st6{font-size:26.2295px;}
</style>
  <g transform="matrix(1, 0, 0, 1, 35.281055, 5.600017)">
    <path class="st0" d="M400.2,297.9c-3.1,3.3-6.7,6.2-10.3,9c-3.7,2.7-7.6,5.1-11.7,7.3c-1,0.5-2.1,1.1-3.1,1.6l-3.2,1.4l-1.6,0.7&#10;&#9;&#9;l-1.6,0.6l-3.3,1.2c-2.2,0.8-4.5,1.4-6.7,2l-3.5,0.8c-1.2,0.3-2.3,0.5-3.5,0.7c-4.7,0.8-9.4,1.3-14.3,1.1l-3.6-0.1&#10;&#9;&#9;c-1.2-0.1-2.4-0.3-3.6-0.4c-1.2-0.2-2.4-0.3-3.6-0.5l-3.6-0.7c-0.6-0.1-1.2-0.2-1.8-0.4l-1.7-0.5l-3.5-1.1l-3.4-1.3l-1.7-0.7&#10;&#9;&#9;l-1.6-0.7l-3.2-1.5l-3.1-1.5c-2.1-1-4.1-2.1-6.1-3.1c-3.9-2.2-7.7-4.2-11.5-6c-3.8-1.7-7.6-3.1-11.5-4.1c-1.9-0.6-3.9-0.8-5.9-1.2&#10;&#9;&#9;l-0.7-0.1l-0.8-0.1l-1.5-0.1l-3-0.2c-2.1,0-4.1,0-6.2,0.1l-3.1,0.2l-1.6,0.1c-0.5,0-1,0.1-1.6,0.2c-2.1,0.3-4.2,0.5-6.3,1l-3.1,0.6&#10;&#9;&#9;l-3.1,0.8c-4.2,1-8.3,2.4-12.4,3.9c-8.2,3-16.3,6.7-24.2,10.9l-0.1,0c-0.2,0.1-0.4,0-0.5-0.1c-0.1-0.2,0-0.3,0.1-0.4&#10;&#9;&#9;c7.2-5.4,15-9.9,23.1-13.8c8.2-3.8,16.7-6.7,25.6-8.3c0.6-0.1,1.1-0.2,1.7-0.3l1.7-0.2l3.4-0.4c2.2-0.2,4.5-0.2,6.8-0.4l3.4,0.1&#10;&#9;&#9;l1.7,0.1l0.8,0l0.8,0.1c2.2,0.3,4.5,0.5,6.7,1.1c1.1,0.3,2.2,0.5,3.3,0.8l3.2,1c1.1,0.3,2.1,0.7,3.2,1.2c1,0.4,2.1,0.8,3.1,1.3&#10;&#9;&#9;c4.1,1.8,8.1,3.9,12,6.1c2,1,3.9,2.1,5.9,3.1l3,1.5l3,1.4l1.5,0.7l1.5,0.6l3.1,1.2l3.2,1l1.6,0.5c0.5,0.1,1.1,0.3,1.6,0.4&#10;&#9;&#9;c8.6,2.2,17.6,2.5,26.4,1.5c8.8-1,17.5-3.5,25.7-7l1.5-0.6l1.5-0.7l3-1.4c2-1,4-2,5.9-3.2c3.9-2.2,7.6-4.6,11.1-7.4&#10;&#9;&#9;c0.2-0.1,0.4-0.1,0.5,0.1C400.4,297.6,400.4,297.8,400.2,297.9L400.2,297.9z"/>
  </g>
  <g transform="matrix(1, 0, 0, 1, 35.281055, 5.600017)">
    <path class="st1" d="M300.2,287c-0.4-13,0.1-26.1,2.9-39c1.3-6.5,3.4-12.8,5.9-19c2.6-6.1,5.9-12,9.6-17.5&#10;&#9;&#9;c3.8-5.5,8.2-10.5,13.1-15c4.9-4.5,10.2-8.5,15.8-12c1.4-0.8,2.8-1.7,4.3-2.5c1.4-0.8,2.9-1.6,4.4-2.3c1.5-0.8,3-1.4,4.5-2.1l2.2-1&#10;&#9;&#9;l2.3-0.9l4.6-1.8c1.5-0.5,3.1-1.1,4.6-1.6c3.1-1.1,6.3-1.8,9.4-2.7c-11.8,5.5-23.3,11.4-33.6,18.8c-5.1,3.8-10.1,7.7-14.5,12.2&#10;&#9;&#9;c-1.1,1.1-2.2,2.3-3.3,3.4l-3.1,3.5c-1,1.2-2,2.4-3,3.7c-1,1.2-1.8,2.5-2.8,3.8c-7.3,10.2-12.4,21.9-15.9,34.1&#10;&#9;&#9;C304.1,261.3,302.3,274.1,300.2,287z"/>
  </g>
  <g transform="matrix(1, 0, 0, 1, 35.281055, 5.600017)">
    <path class="st1" d="M282.5,223.8c-3.3-4.8-6.7-9.3-10.6-13.4c-3.8-4-8-7.6-12.5-10.8c-4.5-3.1-9.3-5.9-14.4-8.2&#10;&#9;&#9;c-5.1-2.4-10.4-4.4-15.9-6.5c5.9-0.3,11.8,0.5,17.5,2.1c5.7,1.7,11.2,4.3,16.2,7.7c4.9,3.5,9.3,7.8,12.7,12.7&#10;&#9;&#9;C279,212.5,281.4,218,282.5,223.8z"/>
  </g>
  <g transform="matrix(1, 0, 0, 1, 35.281055, 5.600017)">
    <path class="st2" d="M300,135.8c6.3,0.1,12.5,2.5,17.3,6.8c2.4,2.1,4.4,4.8,5.7,7.7c1.4,3,2.2,6.2,2.3,9.5&#10;&#9;&#9;c0.2,6.6-2.4,13.3-7.1,18.2c-4.7,4.9-11.4,7.8-18.2,8c-6.8,0.2-13.8-2.4-18.9-7.3c-2.5-2.4-4.6-5.4-5.9-8.6&#10;&#9;&#9;c-1.4-3.3-2-6.8-1.9-10.3c0.1-3.5,1-7,2.5-10.1c1.6-3.1,3.7-5.8,6.3-7.9C287.2,137.7,293.7,135.7,300,135.8z M300,136.4&#10;&#9;&#9;c-3.1,0.1-6.1,0.8-8.8,2.2c-2.7,1.4-5,3.3-6.9,5.6c-3.7,4.6-5.3,10.2-5.1,15.7c0.2,5.5,2.3,10.7,6.1,14.7c3.7,4,9.1,6.5,14.7,6.7&#10;&#9;&#9;c5.6,0.2,11.3-2,15.4-6c4.2-3.9,6.7-9.5,6.9-15.4c0.2-5.8-1.8-11.8-5.9-16.4c-2-2.3-4.6-4.1-7.4-5.3&#10;&#9;&#9;C306.2,137,303.1,136.4,300,136.4z"/>
  </g>
</svg>