<svg xmlns="http://www.w3.org/2000/svg" xmlns:xlink="http://www.w3.org/1999/xlink" viewBox="0 0 100 100" version="1.1" x="0px" y="0px"><g stroke="none" stroke-width="1" fill="none" fill-rule="evenodd"><g fill-rule="nonzero" fill="#000000"><path d="M59.8821251,53.9280906 C59.5250054,54.5161476 59.6352824,55.3926417 60.112803,55.8701623 L69.1213203,64.8786797 C70.2928932,66.0502525 70.2928932,67.9497475 69.1213203,69.1213203 C67.9497475,70.2928932 66.0502525,70.2928932 64.8786797,69.1213203 L55.8701623,60.112803 C55.3856427,59.6282834 54.512258,59.5322646 53.9160352,59.8886056 C53.9160352,59.8886056 53.6953024,60.0525756 53.0022443,60.3904403 C50.887289,61.4214776 48.5112051,62 46,62 C37.163444,62 30,54.836556 30,46 C30,37.163444 37.163444,30 46,30 C54.836556,30 62,37.163444 62,46 C62,48.5201167 61.4173643,50.9041515 60.3794465,53.0247508 C60.0442002,53.7097021 59.8821251,53.9280906 59.8821251,53.9280906 Z M46,56 C51.5228475,56 56,51.5228475 56,46 C56,40.4771525 51.5228475,36 46,36 C40.4771525,36 36,40.4771525 36,46 C36,51.5228475 40.4771525,56 46,56 Z"/></g></g></svg>
