<svg width="300" height="300" viewBox="0 0 47.001 47.001" xmlns="http://www.w3.org/2000/svg"><path d="M 12.93 8.898 C 12.93 10.839 11.356 12.413 9.415 12.413 C 7.474 12.413 5.9 10.839 5.9 8.898 C 5.9 6.957 7.474 5.383 9.415 5.383 C 11.356 5.383 12.93 6.957 12.93 8.898 Z M 14.947 32.194 L 12.887 39.406 L 9.414 27.25 L 5.719 40.182 C 5.471 41.052 4.679 41.616 3.818 41.616 C 3.637 41.616 3.454 41.593 3.271 41.542 C 2.221 41.239 1.61 40.147 1.912 39.091 L 5.567 26.296 L 5.567 21 L 3.828 25.503 C 3.434 26.526 2.286 27.033 1.267 26.638 C 0.246 26.244 -0.261 25.096 0.135 24.076 L 3.769 14.663 C 4.064 13.898 4.801 13.396 5.616 13.396 L 7.548 13.396 C 8.092 13.396 8.568 13.634 8.923 13.99 L 9.906 13.99 C 10.262 13.633 10.735 13.396 11.281 13.396 L 13.212 13.396 C 13.507 13.396 13.782 13.481 14.039 13.6 L 10.278 23.335 C 9.824 24.507 9.855 25.789 10.364 26.937 C 10.873 28.087 11.799 28.97 12.97 29.421 C 13.378 29.577 13.805 29.671 14.237 29.71 Z M 34.071 8.9 C 34.071 6.958 35.647 5.384 37.587 5.384 C 39.526 5.384 41.103 6.958 41.103 8.9 C 41.103 10.842 39.525 12.415 37.587 12.415 C 35.646 12.415 34.071 10.842 34.071 8.9 Z M 45.733 26.638 C 44.714 27.031 43.566 26.524 43.172 25.502 L 41.432 21 L 41.432 26.296 L 45.087 39.093 C 45.391 40.146 44.78 41.241 43.729 41.542 C 43.546 41.593 43.363 41.62 43.182 41.62 C 42.321 41.62 41.53 41.051 41.281 40.183 L 37.587 27.25 L 34.114 39.408 L 32.052 32.193 L 32.766 29.697 C 33.197 29.658 33.623 29.578 34.028 29.422 C 35.2 28.969 36.126 28.086 36.636 26.936 C 37.145 25.787 37.176 24.506 36.722 23.334 L 32.961 13.599 C 33.218 13.479 33.493 13.395 33.788 13.395 L 35.719 13.395 C 36.265 13.395 36.738 13.633 37.094 13.989 L 38.077 13.989 C 38.431 13.632 38.908 13.395 39.451 13.395 L 41.384 13.395 C 42.201 13.395 42.936 13.898 43.231 14.662 L 46.866 24.075 C 47.262 25.095 46.755 26.243 45.733 26.638 Z M 19.323 6.15 C 19.323 3.842 21.197 1.972 23.501 1.972 C 25.805 1.972 27.679 3.841 27.679 6.15 C 27.679 8.457 25.805 10.327 23.501 10.327 C 21.197 10.327 19.323 8.457 19.323 6.15 Z M 32.416 42.028 C 32.774 43.278 32.049 44.581 30.8 44.937 C 30.586 45.001 30.367 45.029 30.153 45.029 C 29.128 45.029 28.186 44.353 27.891 43.323 L 23.501 27.956 L 19.111 43.323 C 18.816 44.353 17.873 45.029 16.849 45.029 C 16.637 45.029 16.418 45 16.202 44.937 C 14.953 44.581 14.229 43.278 14.586 42.028 L 18.93 26.821 L 18.93 20.528 L 16.863 25.88 C 16.395 27.093 15.032 27.696 13.821 27.227 C 12.608 26.761 12.004 25.398 12.473 24.185 L 16.794 12.999 C 17.142 12.092 18.016 11.494 18.988 11.494 L 21.283 11.494 C 21.93 11.494 22.493 11.776 22.916 12.2 L 21.821 20.242 L 23.501 21.667 L 25.181 20.242 L 24.086 12.2 C 24.509 11.776 25.073 11.494 25.719 11.494 L 28.014 11.494 C 28.984 11.494 29.858 12.092 30.208 12.999 L 34.528 24.185 C 34.996 25.398 34.393 26.759 33.18 27.227 C 31.97 27.694 30.606 27.093 30.138 25.88 L 28.071 20.528 L 28.071 26.821 Z" fill="#000"/><path d="M 8.294 17.482 L 7.506 16.943 C 7.451 16.905 7.418 16.843 7.418 16.777 C 7.418 16.71 7.451 16.648 7.506 16.61 L 8.294 16.072 L 8.521 16.405 L 7.976 16.777 L 8.521 17.149 Z M 11.602 16.777 C 11.602 16.843 11.569 16.906 11.514 16.943 L 10.726 17.482 L 10.499 17.149 L 11.044 16.777 L 10.499 16.405 L 10.726 16.072 L 11.514 16.611 C 11.569 16.648 11.602 16.71 11.602 16.777 Z M 10.089 16.157 L 9.281 17.594 C 9.244 17.66 9.176 17.697 9.106 17.697 C 9.072 17.697 9.038 17.689 9.007 17.671 C 8.91 17.617 8.876 17.494 8.931 17.397 L 9.738 15.96 C 9.793 15.863 9.916 15.828 10.012 15.883 C 10.109 15.938 10.143 16.06 10.089 16.157 Z M 36.472 17.537 L 35.684 16.998 C 35.629 16.961 35.596 16.899 35.596 16.832 C 35.596 16.766 35.629 16.704 35.684 16.666 L 36.472 16.128 L 36.699 16.461 L 36.154 16.832 L 36.699 17.205 Z M 39.78 16.832 C 39.78 16.899 39.747 16.961 39.692 16.999 L 38.904 17.537 L 38.677 17.205 L 39.222 16.832 L 38.677 16.461 L 38.904 16.128 L 39.692 16.667 C 39.747 16.704 39.78 16.766 39.78 16.832 Z M 38.267 16.213 L 37.459 17.65 C 37.422 17.716 37.354 17.752 37.284 17.752 C 37.25 17.752 37.216 17.744 37.185 17.727 C 37.088 17.672 37.054 17.549 37.109 17.452 L 37.916 16.015 C 37.971 15.918 38.094 15.884 38.19 15.939 C 38.287 15.993 38.321 16.116 38.267 16.213 Z" fill="#fff"/></svg>