<?xml version="1.0" encoding="iso-8859-1"?>
<!-- Generator: Adobe Illustrator 19.0.0, SVG Export Plug-In . SVG Version: 6.00 Build 0)  -->
<svg xmlns="http://www.w3.org/2000/svg" xmlns:xlink="http://www.w3.org/1999/xlink" version="1.1" id="Layer_1" x="0px" y="0px" viewBox="0 0 299.997 299.997" style="enable-background:new 0 0 299.997 299.997;" xml:space="preserve" width="512px" height="512px">
<g>
	<g>
		<path d="M149.996,0C67.157,0,0.001,67.158,0.001,149.997c0,82.837,67.156,150,149.995,150s150-67.163,150-150    C299.996,67.156,232.835,0,149.996,0z M149.996,59.147c25.031,0,45.326,20.292,45.326,45.325    c0,25.036-20.292,45.328-45.326,45.328s-45.325-20.292-45.325-45.328C104.671,79.439,124.965,59.147,149.996,59.147z     M168.692,212.557h-0.001v16.41v2.028h-18.264h-0.864H83.86c0-44.674,24.302-60.571,40.245-74.843    c7.724,4.15,16.532,6.531,25.892,6.601c9.358-0.07,18.168-2.451,25.887-6.601c7.143,6.393,15.953,13.121,23.511,22.606h-7.275    v10.374v13.051h-13.054h-10.374V212.557z M218.902,228.967v23.425h-16.41v-23.425h-23.428v-16.41h23.428v-23.425H218.9v23.425    h23.423v16.41H218.902z" fill="#e74c3c"/>
	</g>
</g>
<g>
</g>
<g>
</g>
<g>
</g>
<g>
</g>
<g>
</g>
<g>
</g>
<g>
</g>
<g>
</g>
<g>
</g>
<g>
</g>
<g>
</g>
<g>
</g>
<g>
</g>
<g>
</g>
<g>
</g>
</svg>
