<svg viewBox="0 0 486 486" width="300" height="300" xmlns="http://www.w3.org/2000/svg"><path d="M 289.311 394.892 L 289.311 406.763 C 289.311 416.208 282.373 424.066 273.345 425.404 L 270.419 436.188 C 268.831 442.039 263.564 446.135 257.462 446.135 L 228.454 446.135 C 222.352 446.135 217.085 442.039 215.497 436.188 L 212.655 425.404 C 203.543 423.983 196.605 416.208 196.605 406.678 L 196.605 394.809 C 196.605 388.456 201.704 383.355 208.057 383.355 L 277.859 383.355 C 284.212 383.44 289.311 388.539 289.311 394.892 Z M 343.063 234.891 C 343.063 261.892 332.363 286.385 314.975 304.358 C 301.767 318.069 293.24 335.539 290.398 354.181 C 289.144 362.207 282.206 368.142 274.013 368.142 L 211.902 368.142 C 203.794 368.142 196.772 362.289 195.601 354.264 C 192.676 335.624 184.065 317.901 170.857 304.276 C 153.804 286.552 143.188 262.478 142.937 235.979 C 142.352 180.303 186.657 135.247 242.331 134.828 C 297.922 134.41 343.063 179.385 343.063 234.891 Z M 254.285 174.286 C 254.285 168.098 249.269 162.999 243 162.999 C 203.209 162.999 170.774 195.35 170.774 235.225 C 170.774 241.411 175.79 246.51 182.059 246.51 C 188.245 246.51 193.344 241.495 193.344 235.225 C 193.344 207.807 215.664 185.57 243 185.57 C 249.269 185.57 254.285 180.555 254.285 174.286 Z M 243 101.975 C 249.186 101.975 254.285 96.96 254.285 90.69 L 254.285 51.149 C 254.285 44.963 249.269 39.864 243 39.864 C 236.73 39.864 231.714 44.88 231.714 51.149 L 231.714 90.69 C 231.714 96.96 236.814 101.975 243 101.975 Z M 110.168 234.807 C 110.168 228.622 105.152 223.523 98.882 223.523 L 59.342 223.523 C 53.156 223.523 48.057 228.538 48.057 234.807 C 48.057 240.993 53.072 246.094 59.342 246.094 L 98.882 246.094 C 105.152 246.094 110.168 241.077 110.168 234.807 Z M 426.658 223.523 L 387.117 223.523 C 380.931 223.523 375.832 228.538 375.832 234.807 C 375.832 240.993 380.848 246.094 387.117 246.094 L 426.658 246.094 C 432.844 246.094 437.943 241.077 437.943 234.807 C 437.943 228.622 432.927 223.523 426.658 223.523 Z M 344.902 144.19 C 347.744 144.19 350.67 143.104 352.843 140.93 L 380.848 112.926 C 385.278 108.495 385.278 101.391 380.848 96.96 C 376.417 92.529 369.312 92.529 364.881 96.96 L 336.877 124.964 C 332.446 129.395 332.446 136.501 336.877 140.93 C 339.134 143.104 341.976 144.19 344.902 144.19 Z M 133.156 140.848 C 135.33 143.02 138.255 144.107 141.098 144.107 C 143.94 144.107 146.866 143.02 149.039 140.848 C 153.47 136.417 153.47 129.311 149.039 124.88 L 121.035 96.876 C 116.604 92.445 109.499 92.445 105.068 96.876 C 100.638 101.307 100.638 108.412 105.068 112.842 L 133.156 140.848 Z" fill="#000"/></svg>