<svg viewBox="0 0 512 512" width="300" height="300" xmlns="http://www.w3.org/2000/svg"><path d="M 512 84.855 L 512 333.129 C 512 349.698 498.569 363.129 482 363.129 L 300.507 363.129 L 300.507 425.145 L 338.094 425.145 C 346.378 425.145 353.094 431.861 353.094 440.145 C 353.094 448.429 346.378 455.145 338.094 455.145 L 173.907 455.145 C 165.623 455.145 158.907 448.429 158.907 440.145 C 158.907 431.861 165.623 425.145 173.907 425.145 L 211.494 425.145 L 211.494 363.129 L 30 363.129 C 13.431 363.129 0 349.698 0 333.129 L 0 84.855 C 0 68.286 13.431 54.855 30 54.855 L 482 54.855 C 498.569 54.855 512 68.286 512 84.855 Z M 141.641 200.653 L 182.275 172.912 L 165.36 148.135 L 110.354 185.688 C 105.406 189.066 102.451 194.659 102.45 200.651 C 102.45 206.642 105.404 212.237 110.353 215.616 L 165.36 253.169 L 182.275 228.392 Z M 293.46 134.013 C 286.24 129.955 277.094 132.517 273.034 139.739 L 212.816 246.862 C 208.757 254.083 211.32 263.228 218.542 267.288 C 220.866 268.595 223.388 269.215 225.878 269.215 C 231.122 269.215 236.214 266.46 238.967 261.563 L 299.185 154.44 C 303.244 147.219 300.681 138.074 293.46 134.013 Z M 409.55 200.649 C 409.549 194.657 406.594 189.063 401.647 185.687 L 346.64 148.133 L 329.725 172.91 L 370.359 200.651 L 329.725 228.392 L 346.64 253.169 L 401.648 215.615 C 406.597 212.236 409.551 206.642 409.55 200.649 Z" fill="#000"/></svg>