<?xml version="1.0" encoding="utf-8"?>
<svg viewBox="40.70000076293945 89.5 300 300" background="#e74c3c" xmlns="http://www.w3.org/2000/svg">
  <path d="M 81.45 295.1 C 81.45 248.2 122.65 248.3 131.75 236 L 132.75 230.4 C 119.95 223.9 110.85 208.2 110.85 189.9 C 110.85 165.7 126.55 146.2 145.95 146.2 C 161.25 146.2 174.15 158.4 178.95 175.3 C 159.55 181.5 145.15 202.5 145.15 227.5 C 145.15 244.7 151.95 260.6 163.05 270.6 C 161.25 271.5 159.25 272.5 157.55 273.3 C 148.55 277.5 136.15 283.4 127.15 295.1 L 81.45 295.1 L 81.45 295.1 Z M 191.25 332.7 L 191.25 332.7 L 190.35 332.7 L 126.25 332.7 C 126.25 285.8 167.45 285.9 176.55 273.6 L 177.55 268 C 164.75 261.5 155.65 245.8 155.65 227.5 C 155.65 203.3 171.35 183.8 190.75 183.8 C 210.15 183.8 225.85 203.4 225.85 227.5 C 225.85 245.7 216.95 261.3 204.25 267.9 L 205.45 274.3 C 215.45 286 255.25 286.7 255.25 332.8 L 191.25 332.8 L 191.25 332.7 Z M 254.25 295.1 L 254.25 295.1 L 254.25 295.1 C 245.25 283.4 232.75 277.5 223.85 273.3 C 222.05 272.5 220.15 271.5 218.35 270.6 C 229.45 260.5 236.25 244.7 236.25 227.5 C 236.25 202.5 221.85 181.4 202.45 175.3 C 207.25 158.3 220.25 146.2 235.45 146.2 C 254.85 146.2 270.55 165.8 270.55 189.9 C 270.55 208.1 261.65 223.7 248.95 230.3 L 250.15 236.7 C 260.15 248.4 299.95 249.1 299.95 295.2 L 254.25 295.2 L 254.25 295.1 Z" style="fill: rgb(231, 76, 60);"/>
</svg>