<?xml version="1.0" encoding="utf-8"?>
<svg version="1.1" id="Capa_1" x="0px" y="0px" viewBox="-2.278223752975464 -2.709223747253418 51.58245086669922 51.9704475402832" style="enable-background:new 0 0 47.001 47.001;" class="" width="156" height="156" xmlns="http://www.w3.org/2000/svg">
  <rect x="0.639" y="0.473" width="45.482" height="45.456" style="stroke-linejoin: round; stroke-linecap: round; stroke-dashoffset: 3; fill: rgb(255, 255, 255); stroke: rgb(255, 255, 255); stroke-width: 5;"/>
  <path d="M 44.861 0.001 L 2.137 0.001 C 0.955 0.001 0 0.958 0 2.137 L 0 27.785 L 4.272 27.774 L 4.272 26.706 L 10.681 26.706 C 11.272 26.706 11.748 26.227 11.748 25.638 C 11.748 25.049 11.271 24.57 10.681 24.57 L 4.272 24.57 L 4.272 12.82 L 11.749 12.82 L 11.749 19.229 C 11.749 19.819 12.227 20.297 12.817 20.297 L 18.158 20.297 C 18.749 20.297 19.226 19.819 19.226 19.229 C 19.226 18.639 18.748 18.161 18.158 18.161 L 13.886 18.161 L 13.886 11.751 C 13.886 11.161 13.407 10.683 12.818 10.683 L 4.272 10.683 L 4.272 4.274 L 18.158 4.274 L 18.158 13.887 C 18.158 14.477 18.636 14.955 19.226 14.955 C 19.816 14.955 20.294 14.476 20.294 13.887 L 20.294 4.274 L 30.44 4.274 L 30.44 10.683 L 26.702 10.683 C 26.112 10.683 25.636 11.162 25.636 11.751 C 25.636 12.34 26.113 12.819 26.702 12.819 L 36.314 12.819 C 36.905 12.819 37.382 12.34 37.382 11.751 C 37.382 11.162 36.903 10.683 36.314 10.683 L 32.577 10.683 L 32.577 4.274 L 42.724 4.274 L 42.724 12.012 C 42.835 12.071 42.949 12.13 43.054 12.201 L 46.998 14.831 L 46.998 2.137 C 46.998 0.958 46.04 0.001 44.861 0.001 Z" data-original="#2daf4a" class="active-path" style="fill:#2daf4a"/>
  <path d="M 42.727 24.308 L 42.727 28.842 L 35.248 28.842 L 35.248 24.57 C 35.248 23.98 34.77 23.503 34.181 23.503 C 33.592 23.503 33.113 23.982 33.113 24.57 L 33.113 37.388 C 33.113 37.978 33.592 38.456 34.181 38.456 C 34.773 38.456 35.248 37.977 35.248 37.388 L 35.248 30.98 L 42.727 30.98 L 42.727 42.73 L 25.636 42.73 L 25.636 34.185 L 28.84 34.185 C 29.431 34.185 29.908 33.706 29.908 33.117 C 29.908 32.528 29.43 32.049 28.84 32.049 L 24.568 32.049 C 23.977 32.049 23.5 32.528 23.5 33.117 L 23.5 37.388 L 13.887 37.388 C 13.296 37.388 12.819 37.867 12.819 38.456 C 12.819 39.045 13.297 39.524 13.887 39.524 L 23.499 39.524 L 23.499 42.727 L 4.272 42.727 L 4.272 36.319 L 0 36.306 L 0 44.863 C 0 46.044 0.955 47 2.137 47 L 44.861 47 C 46.041 47 46.999 46.043 46.999 44.864 L 46.999 21.49 L 43.055 24.121 C 42.948 24.19 42.836 24.249 42.727 24.308 Z" data-original="#2daf4a" class="active-path" style="fill:#2daf4a"/>
  <path d="M 48.276 18.158 L 39.568 12.355 L 39.521 16.024 L 26.847 16.024 C 25.667 16.024 24.709 16.981 24.709 18.16 L 24.709 24.569 L 18.3 24.569 C 17.121 24.569 16.164 25.526 16.164 26.705 L 16.164 29.91 L -0.912 29.854 L -0.912 34.127 L 18.3 34.183 C 19.481 34.183 20.437 33.226 20.437 32.046 L 20.437 28.841 L 26.847 28.841 C 28.027 28.841 28.982 27.884 28.982 26.705 L 28.982 20.296 L 39.522 20.296 L 39.543 23.937 L 48.276 18.158 Z" data-original="#2daf4a" class="active-path" style="fill:#2daf4a"/>
</svg>