<svg xmlns="http://www.w3.org/2000/svg" height="500" width="500" viewBox="177.8 115.7 315 315.8"><path d="M335.3 135.8C341.6 135.9 347.8 138.3 352.6 142.6 355 144.7 357 147.4 358.3 150.3 359.7 153.3 360.5 156.5 360.6 159.8 360.8 166.4 358.2 173.1 353.5 178 348.8 182.9 342.1 185.8 335.3 186 328.5 186.2 321.5 183.6 316.4 178.7 313.9 176.3 311.8 173.3 310.5 170.1 309.1 166.8 308.5 163.3 308.6 159.8 308.7 156.3 309.6 152.8 311.1 149.7 312.7 146.6 314.8 143.9 317.4 141.8 322.5 137.7 329 135.7 335.3 135.8ZM335.3 136.4C332.2 136.5 329.2 137.2 326.5 138.6 323.8 140 321.5 141.9 319.6 144.2 315.9 148.8 314.3 154.4 314.5 159.9 314.7 165.4 316.8 170.6 320.6 174.6 324.3 178.6 329.7 181.1 335.3 181.3 340.9 181.5 346.6 179.3 350.7 175.3 354.9 171.4 357.4 165.8 357.6 159.9 357.8 154.1 355.8 148.1 351.7 143.5 349.7 141.2 347.1 139.4 344.3 138.2 341.5 137 338.4 136.4 335.3 136.4Z" style="fill:#EC3686"/><path d="M317.8 223.8C314.5 219 311.1 214.5 307.2 210.4 303.4 206.4 299.2 202.8 294.7 199.6 290.2 196.5 285.4 193.7 280.3 191.4 275.2 189 269.9 187 264.4 184.9 270.3 184.6 276.2 185.4 281.9 187 287.6 188.7 293.1 191.3 298.1 194.7 303 198.2 307.4 202.5 310.8 207.4 314.3 212.5 316.7 218 317.8 223.8ZM335.5 287C335.1 274 335.6 260.9 338.4 248 339.7 241.5 341.8 235.2 344.3 229 346.9 222.9 350.2 217 353.9 211.5 357.7 206 362.1 201 367 196.5 371.9 192 377.2 188 382.8 184.5 384.2 183.7 385.6 182.8 387.1 182 388.5 181.2 390 180.4 391.5 179.7 393 178.9 394.5 178.3 396 177.6L398.2 176.6 405.1 173.9C406.6 173.4 408.2 172.8 409.7 172.3 412.8 171.2 416 170.5 419.1 169.6 407.3 175.1 395.8 181 385.5 188.4 380.4 192.2 375.4 196.1 371 200.6 369.9 201.7 368.8 202.9 367.7 204L364.6 207.5C363.6 208.7 362.6 209.9 361.6 211.2 360.6 212.4 359.8 213.7 358.8 215 351.5 225.2 346.4 236.9 342.9 249.1 339.4 261.3 337.6 274.1 335.5 287Z" style="fill:#C4E661"/><path d="M425.2 306.9C421.5 309.6 417.6 312 413.5 314.2 412.5 314.7 411.4 315.3 410.4 315.8L405.6 317.9 404 318.5 400.7 319.7C398.5 320.5 396.2 321.1 394 321.7L390.5 322.5C389.3 322.8 388.2 323 387 323.2 382.3 324 377.6 324.5 372.7 324.3L369.1 324.2C367.9 324.1 366.7 323.9 365.5 323.8 364.3 323.6 363.1 323.5 361.9 323.3L358.3 322.6C357.7 322.5 357.1 322.4 356.5 322.2L354.8 321.7 351.3 320.6 347.9 319.3 346.2 318.6 344.6 317.9 341.4 316.4 338.3 314.9C336.2 313.9 334.2 312.8 332.2 311.8 328.3 309.6 324.5 307.6 320.7 305.8 316.9 304.1 313.1 302.7 309.2 301.7 307.3 301.1 305.3 300.9 303.3 300.5L302.6 300.4 301.8 300.3 297.3 300C295.2 300 293.2 300 291.1 300.1L288 300.3 286.4 300.4C285.9 300.4 285.4 300.5 284.8 300.6 282.7 300.9 280.6 301.1 278.5 301.6L275.4 302.2 272.3 303C268.1 304 264 305.4 259.9 306.9 251.7 309.9 243.6 313.6 235.7 317.8L235.6 317.8C235.4 317.9 235.2 317.8 235.1 317.7 235 317.5 235.1 317.4 235.2 317.3 242.4 311.9 250.2 307.4 258.3 303.5 266.5 299.7 275 296.8 283.9 295.2 284.5 295.1 285 295 285.6 294.9L290.7 294.3C292.9 294.1 295.2 294.1 297.5 293.9L300.9 294 302.6 294.1 303.4 294.1 304.2 294.2C306.4 294.5 308.7 294.7 310.9 295.3 312 295.6 313.1 295.8 314.2 296.1L317.4 297.1C318.5 297.4 319.5 297.8 320.6 298.3 321.6 298.7 322.7 299.1 323.7 299.6 327.8 301.4 331.8 303.5 335.7 305.7 337.7 306.7 339.6 307.8 341.6 308.8L344.6 310.3 349.1 312.4 350.6 313 353.7 314.2 358.5 315.7C359 315.8 359.6 316 360.1 316.1 368.7 318.3 377.7 318.6 386.5 317.6 395.3 316.6 404 314.1 412.2 310.6L413.7 310 418.2 307.9C420.2 306.9 422.2 305.9 424.1 304.7 428 302.5 431.7 300.1 435.2 297.3 435.4 297.2 435.6 297.2 435.7 297.4 435.7 297.6 435.7 297.8 435.5 297.9 432.4 301.2 428.8 304.1 425.2 306.9ZM245.1 369.7L242 369.7 242 345.4 233.4 345.4 233.4 342.6 253.7 342.6 253.7 345.4 245.1 345.4ZM266.6 349C267.5 349 268.3 349 269 349.2L268.6 352.1C267.8 351.9 267 351.8 266.4 351.8 264.7 351.8 263.3 352.4 262.1 353.8 261 355.1 260.4 356.8 260.4 358.8L260.4 369.7 257.3 369.7 257.3 349.3 259.9 349.3 260.2 353.1 260.4 353.1C261.1 351.8 262 350.8 263.1 350 264.2 349.3 265.3 349 266.6 349ZM276 369.7L272.9 369.7 272.9 349.3 276 349.3ZM272.6 343.8C272.6 343.1 272.8 342.6 273.2 342.3 273.5 342 273.9 341.8 274.5 341.8 275 341.8 275.4 342 275.7 342.3 276.1 342.6 276.3 343.1 276.3 343.8 276.3 344.5 276.1 345 275.7 345.4 275.4 345.7 275 345.9 274.5 345.9 273.9 345.9 273.5 345.7 273.2 345.4 272.8 345 272.6 344.5 272.6 343.8ZM295.6 364.1C295.6 366 294.9 367.5 293.5 368.5 292.1 369.5 290.1 370.1 287.5 370.1 284.8 370.1 282.7 369.6 281.2 368.8L281.2 365.9C282.2 366.4 283.3 366.8 284.4 367.1 285.5 367.4 286.6 367.5 287.6 367.5 289.2 367.5 290.5 367.3 291.3 366.7 292.2 366.2 292.6 365.4 292.6 364.4 292.6 363.6 292.3 362.9 291.6 362.4 290.9 361.8 289.6 361.1 287.6 360.4 285.7 359.7 284.3 359 283.5 358.5 282.7 358 282.2 357.4 281.8 356.7 281.4 356.1 281.2 355.3 281.2 354.3 281.2 352.7 281.9 351.4 283.2 350.4 284.6 349.5 286.4 349 288.8 349 290.9 349 293.1 349.4 295.2 350.3L294.1 352.8C292 352 290.2 351.6 288.5 351.6 287.1 351.6 286 351.8 285.2 352.2 284.5 352.7 284.1 353.3 284.1 354.1 284.1 354.7 284.2 355.1 284.5 355.5 284.8 355.9 285.3 356.3 285.9 356.6 286.5 357 287.7 357.5 289.4 358.1 291.9 359 293.5 359.9 294.3 360.8 295.2 361.7 295.6 362.8 295.6 364.1ZM314.5 369.7L314.5 356.5C314.5 354.9 314.1 353.6 313.4 352.8 312.6 352 311.4 351.6 309.8 351.6 307.7 351.6 306.1 352.2 305.1 353.3 304.2 354.5 303.7 356.4 303.7 359L303.7 369.7 300.6 369.7 300.6 340.8 303.7 340.8 303.7 349.5C303.7 350.6 303.6 351.5 303.5 352.2L303.7 352.2C304.3 351.2 305.2 350.4 306.3 349.9 307.4 349.3 308.7 349 310.1 349 312.6 349 314.5 349.6 315.7 350.8 317 352 317.6 353.8 317.6 356.4L317.6 369.7ZM351.3 369.7L347.9 361.1 337 361.1 333.7 369.7 330.5 369.7 341.2 342.4 343.9 342.4 354.5 369.7ZM346.9 358.2L343.8 349.8C343.4 348.7 342.9 347.4 342.5 345.9 342.2 347.1 341.8 348.4 341.3 349.8L338.1 358.2ZM371.7 369.7L371.7 356.5C371.7 354.9 371.4 353.6 370.6 352.8 369.8 352 368.7 351.6 367.1 351.6 364.9 351.6 363.4 352.2 362.4 353.3 361.4 354.5 360.9 356.4 360.9 359L360.9 369.7 357.8 369.7 357.8 349.3 360.3 349.3 360.8 352.1 361 352.1C361.6 351.1 362.5 350.4 363.6 349.8 364.8 349.3 366 349 367.4 349 369.9 349 371.7 349.6 373 350.8 374.2 351.9 374.8 353.8 374.8 356.4L374.8 369.7ZM387.7 367.5C388.2 367.5 388.8 367.5 389.3 367.4 389.8 367.3 390.2 367.2 390.5 367.1L390.5 369.5C390.1 369.7 389.6 369.8 389 369.9 388.3 370 387.8 370.1 387.2 370.1 383.3 370.1 381.3 368 381.3 363.8L381.3 351.7 378.4 351.7 378.4 350.3 381.3 349 382.6 344.6 384.4 344.6 384.4 349.3 390.3 349.3 390.3 351.7 384.4 351.7 384.4 363.7C384.4 364.9 384.7 365.9 385.3 366.5 385.9 367.2 386.7 367.5 387.7 367.5ZM412.1 359.5C412.1 362.8 411.3 365.4 409.6 367.3 407.9 369.1 405.6 370.1 402.7 370.1 400.9 370.1 399.2 369.6 397.8 368.8 396.4 367.9 395.3 366.7 394.6 365.1 393.8 363.5 393.4 361.6 393.4 359.5 393.4 356.2 394.2 353.6 395.9 351.8 397.6 349.9 399.9 349 402.8 349 405.7 349 407.9 349.9 409.6 351.8 411.3 353.7 412.1 356.3 412.1 359.5ZM396.6 359.5C396.6 362.1 397.1 364.1 398.2 365.4 399.2 366.8 400.7 367.5 402.8 367.5 404.8 367.5 406.3 366.8 407.3 365.5 408.4 364.1 408.9 362.1 408.9 359.5 408.9 356.9 408.4 354.9 407.3 353.6 406.3 352.3 404.8 351.6 402.7 351.6 400.7 351.6 399.2 352.3 398.2 353.6 397.1 354.9 396.6 356.9 396.6 359.5ZM431.5 369.7L431.5 356.5C431.5 354.9 431.1 353.6 430.3 352.8 429.6 352 428.4 351.6 426.8 351.6 424.7 351.6 423.1 352.2 422.1 353.3 421.1 354.5 420.6 356.4 420.6 359L420.6 369.7 417.6 369.7 417.6 349.3 420.1 349.3 420.6 352.1 420.7 352.1C421.3 351.1 422.2 350.4 423.4 349.8 424.5 349.3 425.8 349 427.2 349 429.6 349 431.5 349.6 432.7 350.8 433.9 351.9 434.6 353.8 434.6 356.4L434.6 369.7ZM252.9 394.6C252.9 397.5 252.2 399.9 250.7 401.6 249.2 403.3 247.1 404.2 244.5 404.2 241.9 404.2 239.9 403.3 238.4 401.6 236.9 399.9 236.2 397.5 236.2 394.5 236.2 391.6 236.9 389.2 238.4 387.5 239.9 385.8 242 384.9 244.6 384.9 247.2 384.9 249.2 385.8 250.7 387.5 252.2 389.2 252.9 391.6 252.9 394.6ZM237.6 394.6C237.6 397.2 238.2 399.3 239.4 400.8 240.6 402.2 242.3 403 244.5 403 246.8 403 248.5 402.2 249.7 400.8 250.9 399.3 251.5 397.3 251.5 394.6 251.5 391.9 250.9 389.8 249.7 388.4 248.5 386.9 246.8 386.2 244.6 386.2 242.3 386.2 240.6 386.9 239.4 388.4 238.2 389.8 237.6 391.9 237.6 394.6ZM262.3 389.8C262.9 389.8 263.6 389.8 264.2 389.9L264 391.2C263.4 391 262.8 390.9 262.2 390.9 261 390.9 260 391.4 259.3 392.5 258.5 393.5 258.1 394.7 258.1 396.3L258.1 403.9 256.9 403.9 256.9 390 257.9 390 258.1 392.5 258.2 392.5C258.7 391.5 259.3 390.8 260 390.4 260.6 390 261.4 389.8 262.3 389.8ZM277.9 390L277.9 390.9 275 391.1C275.8 392.1 276.2 393.1 276.2 394.2 276.2 395.6 275.7 396.7 274.8 397.5 273.9 398.3 272.7 398.7 271.2 398.7 270.6 398.7 270.2 398.7 269.9 398.7 269.4 398.9 269 399.2 268.8 399.6 268.5 400 268.4 400.3 268.4 400.7 268.4 401.2 268.5 401.5 268.9 401.7 269.2 401.9 269.8 402 270.6 402L273 402C274.5 402 275.7 402.3 276.5 402.9 277.3 403.6 277.7 404.5 277.7 405.6 277.7 407.1 277.1 408.2 275.9 409 274.7 409.8 273 410.2 270.8 410.2 269 410.2 267.7 409.9 266.7 409.2 265.8 408.6 265.3 407.6 265.3 406.4 265.3 405.5 265.6 404.7 266.2 404 266.8 403.4 267.6 403 268.6 402.7 268.2 402.6 267.8 402.3 267.6 402 267.3 401.7 267.2 401.3 267.2 400.8 267.2 399.9 267.8 399.1 269 398.4 268.2 398.1 267.5 397.5 267.1 396.8 266.6 396.1 266.4 395.3 266.4 394.4 266.4 393 266.9 391.9 267.7 391 268.6 390.2 269.8 389.8 271.3 389.8 272.2 389.8 272.9 389.9 273.4 390ZM266.6 406.3C266.6 408.2 268.1 409.2 270.9 409.2 274.5 409.2 276.4 408 276.4 405.7 276.4 404.8 276.1 404.2 275.5 403.9 274.9 403.5 274 403.3 272.7 403.3L270.5 403.3C267.9 403.3 266.6 404.3 266.6 406.3ZM267.7 394.4C267.7 395.4 268 396.3 268.7 396.9 269.3 397.5 270.2 397.8 271.3 397.8 272.5 397.8 273.3 397.5 274 396.9 274.6 396.3 274.9 395.4 274.9 394.3 274.9 393.1 274.6 392.3 273.9 391.7 273.3 391.1 272.4 390.8 271.3 390.8 270.2 390.8 269.3 391.1 268.6 391.7 268 392.4 267.7 393.2 267.7 394.4ZM289.2 403.9L288.9 401.7 288.8 401.7C288.1 402.6 287.4 403.3 286.6 403.6 285.9 404 285 404.2 284 404.2 282.6 404.2 281.6 403.8 280.8 403.2 280.1 402.5 279.7 401.5 279.7 400.2 279.7 398.9 280.2 397.8 281.4 397.1 282.5 396.3 284.1 395.9 286.3 395.9L288.9 395.8 288.9 394.9C288.9 393.6 288.7 392.6 288.1 391.9 287.6 391.2 286.7 390.9 285.5 390.9 284.2 390.9 282.9 391.3 281.5 392L281.1 390.9C282.6 390.2 284.1 389.8 285.6 389.8 287.1 389.8 288.2 390.2 289 391 289.8 391.8 290.1 393 290.1 394.7L290.1 403.9ZM284.1 403C285.6 403 286.7 402.6 287.6 401.8 288.5 400.9 288.9 399.7 288.9 398.2L288.9 396.9 286.5 397C284.5 397.1 283.1 397.4 282.3 397.9 281.4 398.4 281 399.2 281 400.3 281 401.2 281.3 401.8 281.8 402.3 282.4 402.8 283.1 403 284.1 403ZM304.3 403.9L304.3 394.9C304.3 393.5 304 392.5 303.4 391.9 302.9 391.2 301.9 390.9 300.7 390.9 299 390.9 297.8 391.3 297 392.2 296.3 393 295.9 394.4 295.9 396.3L295.9 403.9 294.6 403.9 294.6 390 295.7 390 295.9 391.9 296 391.9C296.9 390.5 298.5 389.8 300.8 389.8 304 389.8 305.6 391.5 305.6 394.8L305.6 403.9ZM311.3 403.9L310.1 403.9 310.1 390 311.3 390ZM309.9 386.2C309.9 385.4 310.2 384.9 310.7 384.9 311 384.9 311.2 385.1 311.3 385.3 311.5 385.5 311.6 385.8 311.6 386.2 311.6 386.6 311.5 386.9 311.3 387.1 311.2 387.3 311 387.4 310.7 387.4 310.2 387.4 309.9 387 309.9 386.2ZM321.6 404.2C319.6 404.2 318 403.6 316.9 402.3 315.8 401.1 315.2 399.3 315.2 397.1 315.2 394.8 315.8 393 317 391.7 318.1 390.4 319.7 389.8 321.8 389.8 323 389.8 324.1 390 325.2 390.4L324.9 391.5C323.7 391.1 322.6 390.9 321.7 390.9 320 390.9 318.7 391.4 317.9 392.5 317 393.6 316.5 395.1 316.5 397 316.5 398.9 317 400.4 317.9 401.5 318.7 402.5 320 403 321.5 403 322.8 403 324 402.8 325.1 402.4L325.1 403.5C324.2 404 323 404.2 321.6 404.2ZM343.9 403.9L336.9 386.7 336.8 386.7C336.8 387.7 336.9 388.8 336.9 389.9L336.9 403.9 335.6 403.9 335.6 385.2 337.6 385.2 344.3 401.7 344.4 401.7 351 385.2 353 385.2 353 403.9 351.6 403.9 351.6 389.8C351.6 388.8 351.7 387.8 351.8 386.7L351.7 386.7 344.7 403.9ZM366.4 403.9L366.1 401.7 366 401.7C365.3 402.6 364.6 403.3 363.8 403.6 363.1 404 362.2 404.2 361.2 404.2 359.9 404.2 358.8 403.8 358 403.2 357.3 402.5 356.9 401.5 356.9 400.2 356.9 398.9 357.5 397.8 358.6 397.1 359.7 396.3 361.4 395.9 363.5 395.9L366.2 395.8 366.2 394.9C366.2 393.6 365.9 392.6 365.3 391.9 364.8 391.2 363.9 390.9 362.7 390.9 361.5 390.9 360.1 391.3 358.7 392L358.3 390.9C359.8 390.2 361.3 389.8 362.8 389.8 364.3 389.8 365.5 390.2 366.2 391 367 391.8 367.4 393 367.4 394.7L367.4 403.9ZM361.3 403C362.8 403 364 402.6 364.8 401.8 365.7 400.9 366.1 399.7 366.1 398.2L366.1 396.9 363.7 397C361.7 397.1 360.3 397.4 359.5 397.9 358.7 398.4 358.2 399.2 358.2 400.3 358.2 401.2 358.5 401.8 359 402.3 359.6 402.8 360.3 403 361.3 403ZM380.5 400.3C380.5 401.6 380 402.5 379 403.2 378.1 403.9 376.8 404.2 375 404.2 373.2 404.2 371.7 403.9 370.6 403.3L370.6 402C372 402.7 373.5 403 375 403 376.4 403 377.4 402.8 378.1 402.3 378.9 401.9 379.2 401.3 379.2 400.5 379.2 399.8 378.9 399.2 378.4 398.7 377.8 398.3 376.9 397.8 375.6 397.3 374.2 396.8 373.2 396.4 372.6 396.1 372.1 395.7 371.6 395.3 371.4 394.8 371.1 394.4 370.9 393.8 370.9 393.1 370.9 392.1 371.4 391.3 372.2 390.7 373.1 390.1 374.3 389.8 375.9 389.8 377.4 389.8 378.8 390.1 380.2 390.6L379.7 391.8C378.3 391.2 377.1 390.9 375.9 390.9 374.8 390.9 373.9 391.1 373.2 391.5 372.5 391.9 372.2 392.4 372.2 393 372.2 393.8 372.5 394.3 373 394.8 373.5 395.2 374.5 395.7 376 396.2 377.3 396.7 378.2 397.1 378.8 397.5 379.3 397.8 379.8 398.2 380 398.7 380.3 399.2 380.5 399.7 380.5 400.3ZM392.6 400.3C392.6 401.6 392.2 402.5 391.2 403.2 390.3 403.9 388.9 404.2 387.2 404.2 385.3 404.2 383.9 403.9 382.8 403.3L382.8 402C384.2 402.7 385.6 403 387.2 403 388.6 403 389.6 402.8 390.3 402.3 391 401.9 391.4 401.3 391.4 400.5 391.4 399.8 391.1 399.2 390.5 398.7 390 398.3 389 397.8 387.7 397.3 386.4 396.8 385.4 396.4 384.8 396.1 384.3 395.7 383.8 395.3 383.5 394.8 383.3 394.4 383.1 393.8 383.1 393.1 383.1 392.1 383.6 391.3 384.4 390.7 385.3 390.1 386.5 389.8 388.1 389.8 389.6 389.8 391 390.1 392.4 390.6L391.9 391.8C390.5 391.2 389.3 390.9 388.1 390.9 387 390.9 386.1 391.1 385.4 391.5 384.7 391.9 384.4 392.4 384.4 393 384.4 393.8 384.7 394.3 385.2 394.8 385.7 395.2 386.7 395.7 388.2 396.2 389.4 396.7 390.4 397.1 390.9 397.5 391.5 397.8 391.9 398.2 392.2 398.7 392.5 399.2 392.6 399.7 392.6 400.3ZM404.6 403.9L404.3 401.7 404.2 401.7C403.5 402.6 402.8 403.3 402.1 403.6 401.3 404 400.5 404.2 399.5 404.2 398.1 404.2 397 403.8 396.3 403.2 395.5 402.5 395.1 401.5 395.1 400.2 395.1 398.9 395.7 397.8 396.8 397.1 398 396.3 399.6 395.9 401.7 395.9L404.4 395.8 404.4 394.9C404.4 393.6 404.1 392.6 403.6 391.9 403 391.2 402.2 390.9 401 390.9 399.7 390.9 398.4 391.3 397 392L396.5 390.9C398 390.2 399.5 389.8 401 389.8 402.6 389.8 403.7 390.2 404.4 391 405.2 391.8 405.6 393 405.6 394.7L405.6 403.9ZM399.5 403C401 403 402.2 402.6 403 401.8 403.9 400.9 404.3 399.7 404.3 398.2L404.3 396.9 401.9 397C399.9 397.1 398.5 397.4 397.7 397.9 396.9 398.4 396.5 399.2 396.5 400.3 396.5 401.2 396.7 401.8 397.3 402.3 397.8 402.8 398.6 403 399.5 403ZM420.9 390L420.9 390.9 418 391.1C418.8 392.1 419.2 393.1 419.2 394.2 419.2 395.6 418.7 396.7 417.8 397.5 417 398.3 415.8 398.7 414.3 398.7 413.6 398.7 413.2 398.7 412.9 398.7 412.4 398.9 412 399.2 411.8 399.6 411.5 400 411.4 400.3 411.4 400.7 411.4 401.2 411.6 401.5 411.9 401.7 412.2 401.9 412.8 402 413.6 402L416 402C417.5 402 418.7 402.3 419.5 402.9 420.3 403.6 420.7 404.5 420.7 405.6 420.7 407.1 420.1 408.2 418.9 409 417.7 409.8 416 410.2 413.8 410.2 412.1 410.2 410.7 409.9 409.8 409.2 408.8 408.6 408.3 407.6 408.3 406.4 408.3 405.5 408.6 404.7 409.2 404 409.8 403.4 410.6 403 411.6 402.7 411.2 402.6 410.9 402.3 410.6 402 410.4 401.7 410.2 401.3 410.2 400.8 410.2 399.9 410.8 399.1 412 398.4 411.2 398.1 410.6 397.5 410.1 396.8 409.7 396.1 409.4 395.3 409.4 394.4 409.4 393 409.9 391.9 410.8 391 411.6 390.2 412.8 389.8 414.3 389.8 415.3 389.8 416 389.9 416.5 390ZM409.7 406.3C409.7 408.2 411.1 409.2 413.9 409.2 417.6 409.2 419.4 408 419.4 405.7 419.4 404.8 419.1 404.2 418.5 403.9 418 403.5 417 403.3 415.8 403.3L413.5 403.3C410.9 403.3 409.7 404.3 409.7 406.3ZM410.7 394.4C410.7 395.4 411 396.3 411.7 396.9 412.4 397.5 413.2 397.8 414.3 397.8 415.5 397.8 416.4 397.5 417 396.9 417.6 396.3 417.9 395.4 417.9 394.3 417.9 393.1 417.6 392.3 417 391.7 416.3 391.1 415.4 390.8 414.3 390.8 413.2 390.8 412.3 391.1 411.7 391.7 411 392.4 410.7 393.2 410.7 394.4ZM429.4 404.2C427.4 404.2 425.8 403.6 424.7 402.3 423.5 401.1 423 399.3 423 397.1 423 394.9 423.5 393.1 424.6 391.8 425.7 390.4 427.2 389.8 429 389.8 430.7 389.8 432 390.3 432.9 391.5 433.9 392.6 434.3 394.2 434.3 396.1L434.3 397.2 424.3 397.2C424.3 399.1 424.8 400.5 425.6 401.5 426.5 402.5 427.8 403 429.4 403 430.2 403 430.9 403 431.5 402.9 432.1 402.8 432.9 402.5 433.8 402.2L433.8 403.3C433 403.7 432.3 403.9 431.6 404 430.9 404.1 430.2 404.2 429.4 404.2ZM429 390.9C427.7 390.9 426.6 391.3 425.8 392.2 425 393.1 424.5 394.4 424.4 396L433 396C433 394.4 432.6 393.2 431.9 392.3 431.2 391.4 430.3 390.9 429 390.9Z" style="fill:#3E6617"/></svg>