<?xml version="1.0" encoding="utf-8"?>
<svg viewBox="214.9810028076172 115.69999694824219 240.6999969482422 240" width="240.6999969482422" height="240" style="enable-background:new 0 0 600 530;" xmlns="http://www.w3.org/2000/svg">
  <defs>
    <style type="text/css">
	.st0{fill:#3E6617;}
	.st1{fill:#C4E661;}
	.st2{fill:#EC3686;}
	.st3{font-family:'OpenSans-Regular';}
	.st4{font-size:37.9876px;}
	.st5{font-family:'OpenSans-Light';}
	.st6{font-size:26.2295px;}
</style>
  </defs>
  <path class="st0" d="M 435.481 303.5 C 432.381 306.8 428.781 309.7 425.181 312.5 C 421.481 315.2 417.581 317.6 413.481 319.8 C 412.481 320.3 411.381 320.9 410.381 321.4 L 407.181 322.8 L 405.581 323.5 L 403.981 324.1 L 400.681 325.3 C 398.481 326.1 396.181 326.7 393.981 327.3 L 390.481 328.1 C 389.281 328.4 388.181 328.6 386.981 328.8 C 382.281 329.6 377.581 330.1 372.681 329.9 L 369.081 329.8 C 367.881 329.7 366.681 329.5 365.481 329.4 C 364.281 329.2 363.081 329.1 361.881 328.9 L 358.281 328.2 C 357.681 328.1 357.081 328 356.481 327.8 L 354.781 327.3 L 351.281 326.2 L 347.881 324.9 L 346.181 324.2 L 344.581 323.5 L 341.381 322 L 338.281 320.5 C 336.181 319.5 334.181 318.4 332.181 317.4 C 328.281 315.2 324.481 313.2 320.681 311.4 C 316.881 309.7 313.081 308.3 309.181 307.3 C 307.281 306.7 305.281 306.5 303.281 306.1 L 302.581 306 L 301.781 305.9 L 300.281 305.8 L 297.281 305.6 C 295.181 305.6 293.181 305.6 291.081 305.7 L 287.981 305.9 L 286.381 306 C 285.881 306 285.381 306.1 284.781 306.2 C 282.681 306.5 280.581 306.7 278.481 307.2 L 275.381 307.8 L 272.281 308.6 C 268.081 309.6 263.981 311 259.881 312.5 C 251.681 315.5 243.581 319.2 235.681 323.4 L 235.581 323.4 C 235.381 323.5 235.181 323.4 235.081 323.3 C 234.981 323.1 235.081 323 235.181 322.9 C 242.381 317.5 250.181 313 258.281 309.1 C 266.481 305.3 274.981 302.4 283.881 300.8 C 284.481 300.7 284.981 300.6 285.581 300.5 L 287.281 300.3 L 290.681 299.9 C 292.881 299.7 295.181 299.7 297.481 299.5 L 300.881 299.6 L 302.581 299.7 L 303.381 299.7 L 304.181 299.8 C 306.381 300.1 308.681 300.3 310.881 300.9 C 311.981 301.2 313.081 301.4 314.181 301.7 L 317.381 302.7 C 318.481 303 319.481 303.4 320.581 303.9 C 321.581 304.3 322.681 304.7 323.681 305.2 C 327.781 307 331.781 309.1 335.681 311.3 C 337.681 312.3 339.581 313.4 341.581 314.4 L 344.581 315.9 L 347.581 317.3 L 349.081 318 L 350.581 318.6 L 353.681 319.8 L 356.881 320.8 L 358.481 321.3 C 358.981 321.4 359.581 321.6 360.081 321.7 C 368.681 323.9 377.681 324.2 386.481 323.2 C 395.281 322.2 403.981 319.7 412.181 316.2 L 413.681 315.6 L 415.181 314.9 L 418.181 313.5 C 420.181 312.5 422.181 311.5 424.081 310.3 C 427.981 308.1 431.681 305.7 435.181 302.9 C 435.381 302.8 435.581 302.8 435.681 303 C 435.681 303.2 435.681 303.4 435.481 303.5 L 435.481 303.5 Z" transform="matrix(1, 0, 0, 1, -2.842170943040401e-14, 0)"/>
  <path class="st1" d="M 317.781 229.4 C 314.481 224.6 311.081 220.1 307.181 216 C 303.381 212 299.181 208.4 294.681 205.2 C 290.181 202.1 285.381 199.3 280.281 197 C 275.181 194.6 269.881 192.6 264.381 190.5 C 270.281 190.2 276.181 191 281.881 192.6 C 287.581 194.3 293.081 196.9 298.081 200.3 C 302.981 203.8 307.381 208.1 310.781 213 C 314.281 218.1 316.681 223.6 317.781 229.4 Z M 335.481 292.6 C 335.081 279.6 335.581 266.5 338.381 253.6 C 339.681 247.1 341.781 240.8 344.281 234.6 C 346.881 228.5 350.181 222.6 353.881 217.1 C 357.681 211.6 362.081 206.6 366.981 202.1 C 371.881 197.6 377.181 193.6 382.781 190.1 C 384.181 189.3 385.581 188.4 387.081 187.6 C 388.481 186.8 389.981 186 391.481 185.3 C 392.981 184.5 394.481 183.9 395.981 183.2 L 398.181 182.2 L 405.081 179.5 C 406.581 179 408.181 178.4 409.681 177.9 C 412.781 176.8 415.981 176.1 419.081 175.2 C 407.281 180.7 395.781 186.6 385.481 194 C 380.381 197.8 375.381 201.7 370.981 206.2 C 369.881 207.3 368.781 208.5 367.681 209.6 L 364.581 213.1 C 363.581 214.3 362.581 215.5 361.581 216.8 C 360.581 218 359.781 219.3 358.781 220.6 C 351.481 230.8 346.381 242.5 342.881 254.7 C 339.381 266.9 337.581 279.7 335.481 292.6 Z" transform="matrix(1, 0, 0, 1, -2.842170943040401e-14, 0)"/>
  <path class="st2" d="M 335.281 141.4 C 341.581 141.5 347.781 143.9 352.581 148.2 C 354.981 150.3 356.981 153 358.281 155.9 C 359.681 158.9 360.481 162.1 360.581 165.4 C 360.781 172 358.181 178.7 353.481 183.6 C 348.781 188.5 342.081 191.4 335.281 191.6 C 328.481 191.8 321.481 189.2 316.381 184.3 C 313.881 181.9 311.781 178.9 310.481 175.7 C 309.081 172.4 308.481 168.9 308.581 165.4 C 308.681 161.9 309.581 158.4 311.081 155.3 C 312.681 152.2 314.781 149.5 317.381 147.4 C 322.481 143.3 328.981 141.3 335.281 141.4 Z M 335.281 142 C 332.181 142.1 329.181 142.8 326.481 144.2 C 323.781 145.6 321.481 147.5 319.581 149.8 C 315.881 154.4 314.281 160 314.481 165.5 C 314.681 171 316.781 176.2 320.581 180.2 C 324.281 184.2 329.681 186.7 335.281 186.9 C 340.881 187.1 346.581 184.9 350.681 180.9 C 354.881 177 357.381 171.4 357.581 165.5 C 357.781 159.7 355.781 153.7 351.681 149.1 C 349.681 146.8 347.081 145 344.281 143.8 C 341.481 142.6 338.381 142 335.281 142 Z" transform="matrix(1, 0, 0, 1, -2.842170943040401e-14, 0)"/>
</svg>